%TF.GenerationSoftware,KiCad,Pcbnew,(6.0.0)*%
%TF.CreationDate,2022-01-03T21:24:03+08:00*%
%TF.ProjectId,NodeMCU-32S-RGBWA-LED-driver,4e6f6465-4d43-4552-9d33-32532d524742,1*%
%TF.SameCoordinates,PX68d6610PY3c42a2c*%
%TF.FileFunction,Copper,L1,Top*%
%TF.FilePolarity,Positive*%
%FSLAX46Y46*%
G04 Gerber Fmt 4.6, Leading zero omitted, Abs format (unit mm)*
G04 Created by KiCad (PCBNEW (6.0.0)) date 2022-01-03 21:24:03*
%MOMM*%
%LPD*%
G01*
G04 APERTURE LIST*
G04 Aperture macros list*
%AMRoundRect*
0 Rectangle with rounded corners*
0 $1 Rounding radius*
0 $2 $3 $4 $5 $6 $7 $8 $9 X,Y pos of 4 corners*
0 Add a 4 corners polygon primitive as box body*
4,1,4,$2,$3,$4,$5,$6,$7,$8,$9,$2,$3,0*
0 Add four circle primitives for the rounded corners*
1,1,$1+$1,$2,$3*
1,1,$1+$1,$4,$5*
1,1,$1+$1,$6,$7*
1,1,$1+$1,$8,$9*
0 Add four rect primitives between the rounded corners*
20,1,$1+$1,$2,$3,$4,$5,0*
20,1,$1+$1,$4,$5,$6,$7,0*
20,1,$1+$1,$6,$7,$8,$9,0*
20,1,$1+$1,$8,$9,$2,$3,0*%
G04 Aperture macros list end*
%TA.AperFunction,ComponentPad*%
%ADD10R,1.700000X1.700000*%
%TD*%
%TA.AperFunction,ComponentPad*%
%ADD11O,1.700000X1.700000*%
%TD*%
%TA.AperFunction,SMDPad,CuDef*%
%ADD12RoundRect,0.250000X0.450000X-0.262500X0.450000X0.262500X-0.450000X0.262500X-0.450000X-0.262500X0*%
%TD*%
%TA.AperFunction,SMDPad,CuDef*%
%ADD13R,2.000000X3.800000*%
%TD*%
%TA.AperFunction,SMDPad,CuDef*%
%ADD14R,2.000000X1.500000*%
%TD*%
%TA.AperFunction,SMDPad,CuDef*%
%ADD15RoundRect,0.125000X-0.587500X-0.125000X0.587500X-0.125000X0.587500X0.125000X-0.587500X0.125000X0*%
%TD*%
%TA.AperFunction,ComponentPad*%
%ADD16R,2.100000X2.100000*%
%TD*%
%TA.AperFunction,ComponentPad*%
%ADD17C,2.100000*%
%TD*%
%TA.AperFunction,SMDPad,CuDef*%
%ADD18RoundRect,0.225000X-0.250000X0.225000X-0.250000X-0.225000X0.250000X-0.225000X0.250000X0.225000X0*%
%TD*%
%TA.AperFunction,SMDPad,CuDef*%
%ADD19RoundRect,0.250000X-0.250000X-0.475000X0.250000X-0.475000X0.250000X0.475000X-0.250000X0.475000X0*%
%TD*%
%TA.AperFunction,ComponentPad*%
%ADD20O,5.000000X2.500000*%
%TD*%
%TA.AperFunction,ComponentPad*%
%ADD21O,4.500000X2.250000*%
%TD*%
%TA.AperFunction,ViaPad*%
%ADD22C,0.800000*%
%TD*%
%TA.AperFunction,ViaPad*%
%ADD23C,1.200000*%
%TD*%
%TA.AperFunction,Conductor*%
%ADD24C,0.800000*%
%TD*%
%TA.AperFunction,Conductor*%
%ADD25C,0.250000*%
%TD*%
%TA.AperFunction,Conductor*%
%ADD26C,0.400000*%
%TD*%
G04 APERTURE END LIST*
D10*
%TO.P,J9,1,Pin_1*%
%TO.N,+3V3*%
X5450000Y-27582500D03*
D11*
%TO.P,J9,2,Pin_2*%
%TO.N,GND*%
X7990000Y-27582500D03*
%TO.P,J9,3,Pin_3*%
%TO.N,unconnected-(J9-Pad3)*%
X10530000Y-27582500D03*
%TO.P,J9,4,Pin_4*%
%TO.N,unconnected-(J9-Pad4)*%
X13070000Y-27582500D03*
%TO.P,J9,5,Pin_5*%
%TO.N,unconnected-(J9-Pad5)*%
X15610000Y-27582500D03*
%TO.P,J9,6,Pin_6*%
%TO.N,unconnected-(J9-Pad6)*%
X18150000Y-27582500D03*
%TO.P,J9,7,Pin_7*%
%TO.N,unconnected-(J9-Pad7)*%
X20690000Y-27582500D03*
%TO.P,J9,8,Pin_8*%
%TO.N,unconnected-(J9-Pad8)*%
X23230000Y-27582500D03*
%TO.P,J9,9,Pin_9*%
%TO.N,unconnected-(J9-Pad9)*%
X25770000Y-27582500D03*
%TO.P,J9,10,Pin_10*%
%TO.N,unconnected-(J9-Pad10)*%
X28310000Y-27582500D03*
%TO.P,J9,11,Pin_11*%
%TO.N,unconnected-(J9-Pad11)*%
X30850000Y-27582500D03*
%TD*%
%TO.P,J8,11,Pin_11*%
%TO.N,unconnected-(J8-Pad11)*%
X30850000Y-30122500D03*
%TO.P,J8,10,Pin_10*%
%TO.N,unconnected-(J8-Pad10)*%
X28310000Y-30122500D03*
%TO.P,J8,9,Pin_9*%
%TO.N,unconnected-(J8-Pad9)*%
X25770000Y-30122500D03*
%TO.P,J8,8,Pin_8*%
%TO.N,unconnected-(J8-Pad8)*%
X23230000Y-30122500D03*
%TO.P,J8,7,Pin_7*%
%TO.N,unconnected-(J8-Pad7)*%
X20690000Y-30122500D03*
%TO.P,J8,6,Pin_6*%
%TO.N,unconnected-(J8-Pad6)*%
X18150000Y-30122500D03*
%TO.P,J8,5,Pin_5*%
%TO.N,unconnected-(J8-Pad5)*%
X15610000Y-30122500D03*
%TO.P,J8,4,Pin_4*%
%TO.N,unconnected-(J8-Pad4)*%
X13070000Y-30122500D03*
%TO.P,J8,3,Pin_3*%
%TO.N,unconnected-(J8-Pad3)*%
X10530000Y-30122500D03*
%TO.P,J8,2,Pin_2*%
%TO.N,GND*%
X7990000Y-30122500D03*
D10*
%TO.P,J8,1,Pin_1*%
%TO.N,+3V3*%
X5450000Y-30122500D03*
%TD*%
D11*
%TO.P,J7,11,Pin_11*%
%TO.N,unconnected-(J7-Pad11)*%
X30850000Y-32662500D03*
%TO.P,J7,10,Pin_10*%
%TO.N,unconnected-(J7-Pad10)*%
X28310000Y-32662500D03*
%TO.P,J7,9,Pin_9*%
%TO.N,unconnected-(J7-Pad9)*%
X25770000Y-32662500D03*
%TO.P,J7,8,Pin_8*%
%TO.N,unconnected-(J7-Pad8)*%
X23230000Y-32662500D03*
%TO.P,J7,7,Pin_7*%
%TO.N,unconnected-(J7-Pad7)*%
X20690000Y-32662500D03*
%TO.P,J7,6,Pin_6*%
%TO.N,unconnected-(J7-Pad6)*%
X18150000Y-32662500D03*
%TO.P,J7,5,Pin_5*%
%TO.N,unconnected-(J7-Pad5)*%
X15610000Y-32662500D03*
%TO.P,J7,4,Pin_4*%
%TO.N,unconnected-(J7-Pad4)*%
X13070000Y-32662500D03*
%TO.P,J7,3,Pin_3*%
%TO.N,unconnected-(J7-Pad3)*%
X10530000Y-32662500D03*
%TO.P,J7,2,Pin_2*%
%TO.N,GND*%
X7990000Y-32662500D03*
D10*
%TO.P,J7,1,Pin_1*%
%TO.N,+3V3*%
X5450000Y-32662500D03*
%TD*%
D11*
%TO.P,J6,11,Pin_11*%
%TO.N,unconnected-(J6-Pad11)*%
X30850000Y-35202500D03*
%TO.P,J6,10,Pin_10*%
%TO.N,unconnected-(J6-Pad10)*%
X28310000Y-35202500D03*
%TO.P,J6,9,Pin_9*%
%TO.N,unconnected-(J6-Pad9)*%
X25770000Y-35202500D03*
%TO.P,J6,8,Pin_8*%
%TO.N,unconnected-(J6-Pad8)*%
X23230000Y-35202500D03*
%TO.P,J6,7,Pin_7*%
%TO.N,unconnected-(J6-Pad7)*%
X20690000Y-35202500D03*
%TO.P,J6,6,Pin_6*%
%TO.N,unconnected-(J6-Pad6)*%
X18150000Y-35202500D03*
%TO.P,J6,5,Pin_5*%
%TO.N,unconnected-(J6-Pad5)*%
X15610000Y-35202500D03*
%TO.P,J6,4,Pin_4*%
%TO.N,unconnected-(J6-Pad4)*%
X13070000Y-35202500D03*
%TO.P,J6,3,Pin_3*%
%TO.N,unconnected-(J6-Pad3)*%
X10530000Y-35202500D03*
%TO.P,J6,2,Pin_2*%
%TO.N,GND*%
X7990000Y-35202500D03*
D10*
%TO.P,J6,1,Pin_1*%
%TO.N,+3V3*%
X5450000Y-35202500D03*
%TD*%
D11*
%TO.P,J5,11,Pin_11*%
%TO.N,unconnected-(J5-Pad11)*%
X30850000Y-37742500D03*
%TO.P,J5,10,Pin_10*%
%TO.N,unconnected-(J5-Pad10)*%
X28310000Y-37742500D03*
%TO.P,J5,9,Pin_9*%
%TO.N,unconnected-(J5-Pad9)*%
X25770000Y-37742500D03*
%TO.P,J5,8,Pin_8*%
%TO.N,unconnected-(J5-Pad8)*%
X23230000Y-37742500D03*
%TO.P,J5,7,Pin_7*%
%TO.N,unconnected-(J5-Pad7)*%
X20690000Y-37742500D03*
%TO.P,J5,6,Pin_6*%
%TO.N,unconnected-(J5-Pad6)*%
X18150000Y-37742500D03*
%TO.P,J5,5,Pin_5*%
%TO.N,unconnected-(J5-Pad5)*%
X15610000Y-37742500D03*
%TO.P,J5,4,Pin_4*%
%TO.N,unconnected-(J5-Pad4)*%
X13070000Y-37742500D03*
%TO.P,J5,3,Pin_3*%
%TO.N,unconnected-(J5-Pad3)*%
X10530000Y-37742500D03*
%TO.P,J5,2,Pin_2*%
%TO.N,GND*%
X7990000Y-37742500D03*
D10*
%TO.P,J5,1,Pin_1*%
%TO.N,+3V3*%
X5450000Y-37742500D03*
%TD*%
D11*
%TO.P,J4,11,Pin_11*%
%TO.N,unconnected-(J4-Pad11)*%
X30850000Y-40282500D03*
%TO.P,J4,10,Pin_10*%
%TO.N,unconnected-(J4-Pad10)*%
X28310000Y-40282500D03*
%TO.P,J4,9,Pin_9*%
%TO.N,unconnected-(J4-Pad9)*%
X25770000Y-40282500D03*
%TO.P,J4,8,Pin_8*%
%TO.N,unconnected-(J4-Pad8)*%
X23230000Y-40282500D03*
%TO.P,J4,7,Pin_7*%
%TO.N,unconnected-(J4-Pad7)*%
X20690000Y-40282500D03*
%TO.P,J4,6,Pin_6*%
%TO.N,unconnected-(J4-Pad6)*%
X18150000Y-40282500D03*
%TO.P,J4,5,Pin_5*%
%TO.N,unconnected-(J4-Pad5)*%
X15610000Y-40282500D03*
%TO.P,J4,4,Pin_4*%
%TO.N,unconnected-(J4-Pad4)*%
X13070000Y-40282500D03*
%TO.P,J4,3,Pin_3*%
%TO.N,unconnected-(J4-Pad3)*%
X10530000Y-40282500D03*
%TO.P,J4,2,Pin_2*%
%TO.N,GND*%
X7990000Y-40282500D03*
D10*
%TO.P,J4,1,Pin_1*%
%TO.N,+3V3*%
X5450000Y-40282500D03*
%TD*%
D11*
%TO.P,J3,11,Pin_11*%
%TO.N,unconnected-(J3-Pad11)*%
X30850000Y-42822500D03*
%TO.P,J3,10,Pin_10*%
%TO.N,unconnected-(J3-Pad10)*%
X28310000Y-42822500D03*
%TO.P,J3,9,Pin_9*%
%TO.N,unconnected-(J3-Pad9)*%
X25770000Y-42822500D03*
%TO.P,J3,8,Pin_8*%
%TO.N,unconnected-(J3-Pad8)*%
X23230000Y-42822500D03*
%TO.P,J3,7,Pin_7*%
%TO.N,unconnected-(J3-Pad7)*%
X20690000Y-42822500D03*
%TO.P,J3,6,Pin_6*%
%TO.N,unconnected-(J3-Pad6)*%
X18150000Y-42822500D03*
%TO.P,J3,5,Pin_5*%
%TO.N,unconnected-(J3-Pad5)*%
X15610000Y-42822500D03*
%TO.P,J3,4,Pin_4*%
%TO.N,unconnected-(J3-Pad4)*%
X13070000Y-42822500D03*
%TO.P,J3,3,Pin_3*%
%TO.N,unconnected-(J3-Pad3)*%
X10530000Y-42822500D03*
%TO.P,J3,2,Pin_2*%
%TO.N,GND*%
X7990000Y-42822500D03*
D10*
%TO.P,J3,1,Pin_1*%
%TO.N,+3V3*%
X5450000Y-42822500D03*
%TD*%
%TO.P,U1,1,VDD3V3*%
%TO.N,+3V3*%
X2910000Y-46842500D03*
D11*
%TO.P,U1,2,~EN~*%
%TO.N,unconnected-(U1-Pad2)*%
X5450000Y-46842500D03*
%TO.P,U1,3,SVP*%
%TO.N,unconnected-(U1-Pad3)*%
X7990000Y-46842500D03*
%TO.P,U1,4,SVN*%
%TO.N,unconnected-(U1-Pad4)*%
X10530000Y-46842500D03*
%TO.P,U1,5,IO34*%
%TO.N,unconnected-(U1-Pad5)*%
X13070000Y-46842500D03*
%TO.P,U1,6,IO35*%
%TO.N,unconnected-(U1-Pad6)*%
X15610000Y-46842500D03*
%TO.P,U1,7,IO32*%
%TO.N,unconnected-(U1-Pad7)*%
X18150000Y-46842500D03*
%TO.P,U1,8,IO33*%
%TO.N,unconnected-(U1-Pad8)*%
X20690000Y-46842500D03*
%TO.P,U1,9,IO25*%
%TO.N,unconnected-(U1-Pad9)*%
X23230000Y-46842500D03*
%TO.P,U1,10,IO26*%
%TO.N,unconnected-(U1-Pad10)*%
X25770000Y-46842500D03*
%TO.P,U1,11,IO27*%
%TO.N,unconnected-(U1-Pad11)*%
X28310000Y-46842500D03*
%TO.P,U1,12,IO14*%
%TO.N,unconnected-(U1-Pad12)*%
X30850000Y-46842500D03*
%TO.P,U1,13,IO12*%
%TO.N,unconnected-(U1-Pad13)*%
X33390000Y-46842500D03*
%TO.P,U1,14,GND*%
%TO.N,GND*%
X35930000Y-46842500D03*
%TO.P,U1,15,IO13*%
%TO.N,unconnected-(U1-Pad15)*%
X38470000Y-46842500D03*
%TO.P,U1,16,SD2*%
%TO.N,unconnected-(U1-Pad16)*%
X41010000Y-46842500D03*
%TO.P,U1,17,SD3*%
%TO.N,unconnected-(U1-Pad17)*%
X43550000Y-46842500D03*
%TO.P,U1,18,CMD*%
%TO.N,unconnected-(U1-Pad18)*%
X46090000Y-46842500D03*
%TO.P,U1,19,VDD5V*%
%TO.N,unconnected-(U1-Pad19)*%
X48630000Y-46842500D03*
%TO.P,U1,20,CLK*%
%TO.N,unconnected-(U1-Pad20)*%
X48630000Y-23982500D03*
%TO.P,U1,21,SD0*%
%TO.N,unconnected-(U1-Pad21)*%
X46090000Y-23982500D03*
%TO.P,U1,22,SD1*%
%TO.N,unconnected-(U1-Pad22)*%
X43550000Y-23982500D03*
%TO.P,U1,23,IO15*%
%TO.N,unconnected-(U1-Pad23)*%
X41010000Y-23982500D03*
%TO.P,U1,24,IO2*%
%TO.N,unconnected-(U1-Pad24)*%
X38470000Y-23982500D03*
%TO.P,U1,25,IO0*%
%TO.N,unconnected-(U1-Pad25)*%
X35930000Y-23982500D03*
%TO.P,U1,26,IO4*%
%TO.N,unconnected-(U1-Pad26)*%
X33390000Y-23982500D03*
%TO.P,U1,27,IO16*%
%TO.N,Net-(R4-Pad1)*%
X30850000Y-23982500D03*
%TO.P,U1,28,IO17*%
%TO.N,Net-(R3-Pad1)*%
X28310000Y-23982500D03*
%TO.P,U1,29,IO5*%
%TO.N,unconnected-(U1-Pad29)*%
X25770000Y-23982500D03*
%TO.P,U1,30,IO18*%
%TO.N,Net-(R2-Pad1)*%
X23230000Y-23982500D03*
%TO.P,U1,31,IO19*%
%TO.N,Net-(R1-Pad1)*%
X20690000Y-23982500D03*
%TO.P,U1,32,GND*%
%TO.N,GND*%
X18150000Y-23982500D03*
%TO.P,U1,33,IO21*%
%TO.N,unconnected-(U1-Pad33)*%
X15610000Y-23982500D03*
%TO.P,U1,34,U0RX*%
%TO.N,unconnected-(U1-Pad34)*%
X13070000Y-23982500D03*
%TO.P,U1,35,U0TX*%
%TO.N,unconnected-(U1-Pad35)*%
X10530000Y-23982500D03*
%TO.P,U1,36,IO22*%
%TO.N,unconnected-(U1-Pad36)*%
X7990000Y-23982500D03*
%TO.P,U1,37,IO23*%
%TO.N,unconnected-(U1-Pad37)*%
X5450000Y-23982500D03*
%TO.P,U1,38,GND*%
%TO.N,GND*%
X2910000Y-23982500D03*
%TD*%
D12*
%TO.P,R6,1*%
%TO.N,Net-(R2-Pad1)*%
X12820000Y-19675000D03*
%TO.P,R6,2*%
%TO.N,/Red{slash}Dat0*%
X12820000Y-17850000D03*
%TD*%
%TO.P,R12,1*%
%TO.N,GND*%
X20820000Y-19675000D03*
%TO.P,R12,2*%
%TO.N,Net-(Q4-Pad2)*%
X20820000Y-17850000D03*
%TD*%
%TO.P,R2,1*%
%TO.N,Net-(R2-Pad1)*%
X10820000Y-19675000D03*
%TO.P,R2,2*%
%TO.N,Net-(Q2-Pad2)*%
X10820000Y-17850000D03*
%TD*%
%TO.P,R7,1*%
%TO.N,Net-(R3-Pad1)*%
X18820000Y-19675000D03*
%TO.P,R7,2*%
%TO.N,/Green{slash}Clk1*%
X18820000Y-17850000D03*
%TD*%
D13*
%TO.P,U2,2,VO*%
%TO.N,+3V3*%
X36120000Y-18862500D03*
D14*
X42420000Y-18862500D03*
%TO.P,U2,3,VI*%
%TO.N,VDD*%
X42420000Y-16562500D03*
%TO.P,U2,1,GND*%
%TO.N,GND*%
X42420000Y-21162500D03*
%TD*%
D12*
%TO.P,R5,1*%
%TO.N,Net-(R1-Pad1)*%
X2820000Y-19675000D03*
%TO.P,R5,2*%
%TO.N,/White{slash}Clk0*%
X2820000Y-17850000D03*
%TD*%
%TO.P,R4,1*%
%TO.N,Net-(R4-Pad1)*%
X22820000Y-19675000D03*
%TO.P,R4,2*%
%TO.N,Net-(Q4-Pad2)*%
X22820000Y-17850000D03*
%TD*%
%TO.P,R3,1*%
%TO.N,Net-(R3-Pad1)*%
X16820000Y-19675000D03*
%TO.P,R3,2*%
%TO.N,Net-(Q3-Pad2)*%
X16820000Y-17850000D03*
%TD*%
D15*
%TO.P,Q1,1,D*%
%TO.N,/White{slash}Clk0*%
X4182500Y-13012500D03*
X6457500Y-13962500D03*
X6457500Y-13012500D03*
X4182500Y-13962500D03*
%TO.P,Q1,2,G*%
%TO.N,Net-(Q1-Pad2)*%
X4182500Y-14912500D03*
%TO.P,Q1,3,S*%
%TO.N,GND*%
X6457500Y-14912500D03*
%TD*%
D12*
%TO.P,R9,1*%
%TO.N,GND*%
X6820000Y-19675000D03*
%TO.P,R9,2*%
%TO.N,Net-(Q1-Pad2)*%
X6820000Y-17850000D03*
%TD*%
D15*
%TO.P,Q2,1,D*%
%TO.N,/Red{slash}Dat0*%
X8732500Y-13012500D03*
X11007500Y-13962500D03*
X11007500Y-13012500D03*
X8732500Y-13962500D03*
%TO.P,Q2,2,G*%
%TO.N,Net-(Q2-Pad2)*%
X8732500Y-14912500D03*
%TO.P,Q2,3,S*%
%TO.N,GND*%
X11007500Y-14912500D03*
%TD*%
%TO.P,Q4,1,D*%
%TO.N,/Blue{slash}Dat1*%
X17882500Y-13012500D03*
X20157500Y-13962500D03*
X20157500Y-13012500D03*
X17882500Y-13962500D03*
%TO.P,Q4,2,G*%
%TO.N,Net-(Q4-Pad2)*%
X17882500Y-14912500D03*
%TO.P,Q4,3,S*%
%TO.N,GND*%
X20157500Y-14912500D03*
%TD*%
D16*
%TO.P,J2,1,1*%
%TO.N,VDD*%
X2300000Y-8000000D03*
D17*
%TO.P,J2,2,2*%
%TO.N,/White{slash}Clk0*%
X6110000Y-8000000D03*
%TO.P,J2,3,3*%
%TO.N,/Red{slash}Dat0*%
X9920000Y-8000000D03*
%TO.P,J2,4,4*%
%TO.N,/Green{slash}Clk1*%
X13730000Y-8000000D03*
%TO.P,J2,5,5*%
%TO.N,/Blue{slash}Dat1*%
X17540000Y-8000000D03*
%TO.P,J2,6,6*%
%TO.N,GND*%
X21350000Y-8000000D03*
%TD*%
D12*
%TO.P,R10,1*%
%TO.N,GND*%
X8820000Y-19675000D03*
%TO.P,R10,2*%
%TO.N,Net-(Q2-Pad2)*%
X8820000Y-17850000D03*
%TD*%
%TO.P,R8,1*%
%TO.N,Net-(R4-Pad1)*%
X24820000Y-19675000D03*
%TO.P,R8,2*%
%TO.N,/Blue{slash}Dat1*%
X24820000Y-17850000D03*
%TD*%
D18*
%TO.P,C2,1*%
%TO.N,+3V3*%
X44420000Y-19087500D03*
%TO.P,C2,2*%
%TO.N,GND*%
X44420000Y-20637500D03*
%TD*%
D15*
%TO.P,Q3,1,D*%
%TO.N,/Green{slash}Clk1*%
X13282500Y-13012500D03*
X15557500Y-13962500D03*
X15557500Y-13012500D03*
X13282500Y-13962500D03*
%TO.P,Q3,2,G*%
%TO.N,Net-(Q3-Pad2)*%
X13282500Y-14912500D03*
%TO.P,Q3,3,S*%
%TO.N,GND*%
X15557500Y-14912500D03*
%TD*%
D19*
%TO.P,C1,1*%
%TO.N,VDD*%
X44470000Y-17262500D03*
%TO.P,C1,2*%
%TO.N,GND*%
X46370000Y-17262500D03*
%TD*%
D12*
%TO.P,R1,1*%
%TO.N,Net-(R1-Pad1)*%
X4820000Y-19675000D03*
%TO.P,R1,2*%
%TO.N,Net-(Q1-Pad2)*%
X4820000Y-17850000D03*
%TD*%
%TO.P,R11,1*%
%TO.N,GND*%
X14820000Y-19675000D03*
%TO.P,R11,2*%
%TO.N,Net-(Q3-Pad2)*%
X14820000Y-17850000D03*
%TD*%
D20*
%TO.P,J1,1*%
%TO.N,VDD*%
X43370000Y-13650000D03*
D21*
%TO.P,J1,2*%
%TO.N,GND*%
X43370000Y-7650000D03*
%TD*%
D22*
%TO.N,GND*%
X16020000Y-15762500D03*
X6070000Y-16562500D03*
X20270000Y-16562500D03*
X21970000Y-16562500D03*
X6920000Y-15762500D03*
X16020000Y-16562500D03*
X6920000Y-16562500D03*
X21120000Y-16562500D03*
X20270000Y-15762500D03*
X10620000Y-15762500D03*
X10620000Y-16562500D03*
X7820000Y-20512500D03*
X14851049Y-20681451D03*
D23*
X46220000Y-20462500D03*
D22*
X19420000Y-15762500D03*
X15170000Y-16562500D03*
X21520000Y-15012500D03*
X19870688Y-18811812D03*
X11470000Y-15762500D03*
X5220000Y-15762500D03*
X9770000Y-15762500D03*
X5220000Y-16562500D03*
X11470000Y-16562500D03*
X15170000Y-15762500D03*
X21970000Y-15762500D03*
X14320000Y-15762500D03*
X21120000Y-15762500D03*
X9770000Y-16562500D03*
X6070000Y-15762500D03*
X14320000Y-16562500D03*
%TD*%
D24*
%TO.N,+3V3*%
X5490000Y-44372500D02*
X5230000Y-44632500D01*
X5490000Y-27582500D02*
X5490000Y-44372500D01*
X34080000Y-44632500D02*
X5230000Y-44632500D01*
X5230000Y-44632500D02*
X3510000Y-44632500D01*
%TO.N,VDD*%
X43420000Y-12650000D02*
X44670000Y-12650000D01*
X43770000Y-16562500D02*
X44470000Y-17262500D01*
X43420000Y-12650000D02*
X42420000Y-13650000D01*
X42420000Y-16562500D02*
X43770000Y-16562500D01*
X42420000Y-13650000D02*
X42420000Y-16562500D01*
D25*
%TO.N,GND*%
X6820000Y-19675000D02*
X7732500Y-19675000D01*
D24*
X46370000Y-20312500D02*
X46220000Y-20462500D01*
X44520000Y-21162500D02*
X45520000Y-21162500D01*
X44420000Y-20637500D02*
X44420000Y-21062500D01*
X45520000Y-21162500D02*
X46220000Y-20462500D01*
D25*
X19970000Y-18812500D02*
X19870000Y-18812500D01*
D24*
X20820000Y-19675000D02*
X20820000Y-19662500D01*
X46370000Y-17262500D02*
X46370000Y-20312500D01*
D25*
X19870000Y-18812500D02*
X19870688Y-18811812D01*
X14820000Y-20650402D02*
X14820000Y-19675000D01*
X7732500Y-19675000D02*
X8820000Y-19675000D01*
X7820000Y-19762500D02*
X7732500Y-19675000D01*
X14851049Y-20681451D02*
X14820000Y-20650402D01*
X7820000Y-20512500D02*
X7820000Y-19762500D01*
D24*
X42420000Y-21162500D02*
X44520000Y-21162500D01*
X44420000Y-21062500D02*
X44520000Y-21162500D01*
D25*
X20820000Y-19662500D02*
X19970000Y-18812500D01*
D24*
%TO.N,+3V3*%
X42420000Y-18862500D02*
X36120000Y-18862500D01*
X36120000Y-19342500D02*
X36120000Y-18862500D01*
D26*
X34700000Y-21272500D02*
X34660000Y-21312500D01*
D24*
X34700000Y-20762500D02*
X36120000Y-19342500D01*
D26*
X34670000Y-23122500D02*
X34670000Y-25072500D01*
D24*
X3510000Y-44632500D02*
X2910000Y-45232500D01*
X34670000Y-25072500D02*
X34670000Y-44042500D01*
X34670000Y-44042500D02*
X34080000Y-44632500D01*
X44195000Y-18862500D02*
X44420000Y-19087500D01*
X2910000Y-45232500D02*
X2910000Y-46842500D01*
X42420000Y-18862500D02*
X44195000Y-18862500D01*
D26*
X34700000Y-23092500D02*
X34670000Y-23122500D01*
D24*
X34700000Y-23092500D02*
X34700000Y-20762500D01*
D25*
X34700000Y-23092500D02*
X34700000Y-21272500D01*
%TO.N,Net-(Q1-Pad2)*%
X4120000Y-14975000D02*
X4120000Y-17212500D01*
X4820000Y-17850000D02*
X6820000Y-17850000D01*
X4757500Y-17850000D02*
X4820000Y-17850000D01*
X4182500Y-14912500D02*
X4120000Y-14975000D01*
X4120000Y-17212500D02*
X4757500Y-17850000D01*
%TO.N,Net-(Q3-Pad2)*%
X13282500Y-16787507D02*
X13282500Y-14912500D01*
X14820000Y-17850000D02*
X14344993Y-17850000D01*
X14344993Y-17850000D02*
X13282500Y-16787507D01*
X14820000Y-17850000D02*
X16820000Y-17850000D01*
%TO.N,Net-(Q4-Pad2)*%
X17882500Y-15287307D02*
X17882500Y-14912500D01*
X20445193Y-17850000D02*
X17882500Y-15287307D01*
X20820000Y-17850000D02*
X20445193Y-17850000D01*
X20820000Y-17850000D02*
X22820000Y-17850000D01*
%TO.N,Net-(Q2-Pad2)*%
X8732500Y-14912500D02*
X8732500Y-17762500D01*
X8820000Y-17850000D02*
X10820000Y-17850000D01*
X8732500Y-17762500D02*
X8820000Y-17850000D01*
%TO.N,Net-(R1-Pad1)*%
X20690000Y-22532500D02*
X20418560Y-22261060D01*
X20690000Y-23982500D02*
X20690000Y-22532500D01*
X2820000Y-19675000D02*
X4820000Y-19675000D01*
X20418560Y-22261060D02*
X7406060Y-22261060D01*
X7406060Y-22261060D02*
X4820000Y-19675000D01*
%TO.N,Net-(R2-Pad1)*%
X23230000Y-23442500D02*
X23230000Y-22122500D01*
X14956540Y-21811540D02*
X12820000Y-19675000D01*
X10820000Y-19675000D02*
X12820000Y-19675000D01*
X22919040Y-21811540D02*
X14956540Y-21811540D01*
X23230000Y-22122500D02*
X22919040Y-21811540D01*
%TO.N,Net-(R3-Pad1)*%
X28310000Y-23982500D02*
X28310000Y-22352500D01*
X18507020Y-21362020D02*
X16820000Y-19675000D01*
X28310000Y-22352500D02*
X27319520Y-21362020D01*
X18820000Y-19675000D02*
X16820000Y-19675000D01*
X27319520Y-21362020D02*
X18507020Y-21362020D01*
%TO.N,Net-(R4-Pad1)*%
X24820000Y-19675000D02*
X26057500Y-20912500D01*
X27780000Y-20912500D02*
X26820000Y-20912500D01*
X22820000Y-19675000D02*
X24820000Y-19675000D01*
X30580000Y-23712500D02*
X27780000Y-20912500D01*
X26057500Y-20912500D02*
X26820000Y-20912500D01*
%TO.N,/White{slash}Clk0*%
X3120000Y-13962500D02*
X4182500Y-13962500D01*
X2820000Y-14262500D02*
X3120000Y-13962500D01*
X2820000Y-17850000D02*
X2820000Y-14262500D01*
%TO.N,/Red{slash}Dat0*%
X12170000Y-14612500D02*
X11520000Y-13962500D01*
X11520000Y-13962500D02*
X11007500Y-13962500D01*
X12420000Y-15687886D02*
X12170000Y-15437886D01*
X12170000Y-15437886D02*
X12170000Y-14612500D01*
X12420000Y-17450000D02*
X12420000Y-15687886D01*
X12820000Y-17850000D02*
X12420000Y-17450000D01*
%TO.N,/Green{slash}Clk1*%
X16770000Y-15162500D02*
X17095000Y-15487500D01*
X16370000Y-13962500D02*
X16770000Y-14362500D01*
X17095000Y-16387500D02*
X18557500Y-17850000D01*
X16770000Y-14362500D02*
X16770000Y-15162500D01*
X18557500Y-17850000D02*
X18820000Y-17850000D01*
X15557500Y-13962500D02*
X16370000Y-13962500D01*
X17095000Y-15487500D02*
X17095000Y-16387500D01*
%TO.N,/Blue{slash}Dat1*%
X24870000Y-17800000D02*
X24820000Y-17850000D01*
X20157500Y-13962500D02*
X23120000Y-13962500D01*
X24870000Y-15712500D02*
X24870000Y-17800000D01*
X23120000Y-13962500D02*
X24870000Y-15712500D01*
%TD*%
%TA.AperFunction,Conductor*%
%TO.N,/White{slash}Clk0*%
G36*
X7762121Y-6482502D02*
G01*
X7808614Y-6536158D01*
X7820000Y-6588500D01*
X7820000Y-9652864D01*
X7818535Y-9672022D01*
X7420000Y-12262500D01*
X7420000Y-14186500D01*
X7399998Y-14254621D01*
X7346342Y-14301114D01*
X7294000Y-14312500D01*
X2796000Y-14312500D01*
X2727879Y-14292498D01*
X2681386Y-14238842D01*
X2670000Y-14186500D01*
X2670000Y-12304500D01*
X2690002Y-12236379D01*
X2695200Y-12228900D01*
X4609130Y-9676993D01*
X4620000Y-9662500D01*
X4620000Y-6588500D01*
X4640002Y-6520379D01*
X4693658Y-6473886D01*
X4746000Y-6462500D01*
X7694000Y-6462500D01*
X7762121Y-6482502D01*
G37*
%TD.AperFunction*%
%TD*%
%TA.AperFunction,Conductor*%
%TO.N,GND*%
G36*
X16332621Y-14632502D02*
G01*
X16379114Y-14686158D01*
X16390500Y-14738500D01*
X16390500Y-15108580D01*
X16387951Y-15132528D01*
X16387872Y-15134193D01*
X16385680Y-15144376D01*
X16386904Y-15154717D01*
X16389627Y-15177723D01*
X16389977Y-15183654D01*
X16390072Y-15183646D01*
X16390500Y-15188824D01*
X16390500Y-15194024D01*
X16391354Y-15199153D01*
X16391354Y-15199156D01*
X16393669Y-15213065D01*
X16394506Y-15218943D01*
X16400530Y-15269841D01*
X16404493Y-15278093D01*
X16405996Y-15287126D01*
X16410943Y-15296295D01*
X16410944Y-15296297D01*
X16430334Y-15332232D01*
X16433031Y-15337525D01*
X16451785Y-15376582D01*
X16451788Y-15376586D01*
X16455219Y-15383732D01*
X16458814Y-15388008D01*
X16460737Y-15389931D01*
X16462509Y-15391863D01*
X16462552Y-15391942D01*
X16462428Y-15392055D01*
X16462904Y-15392595D01*
X16465990Y-15398314D01*
X16473635Y-15405381D01*
X16505586Y-15434916D01*
X16509152Y-15438346D01*
X16583095Y-15512289D01*
X16617121Y-15574601D01*
X16620000Y-15601384D01*
X16620000Y-16836500D01*
X16599998Y-16904621D01*
X16546342Y-16951114D01*
X16494000Y-16962500D01*
X14046377Y-16962500D01*
X13978256Y-16942498D01*
X13957282Y-16925595D01*
X13856905Y-16825218D01*
X13822879Y-16762906D01*
X13820000Y-16736123D01*
X13820000Y-15538464D01*
X13840002Y-15470343D01*
X13893658Y-15423850D01*
X13927642Y-15413809D01*
X13980561Y-15406019D01*
X14042931Y-15375397D01*
X14098462Y-15362500D01*
X14420000Y-15362500D01*
X14420000Y-14738500D01*
X14440002Y-14670379D01*
X14493658Y-14623886D01*
X14546000Y-14612500D01*
X16264500Y-14612500D01*
X16332621Y-14632502D01*
G37*
%TD.AperFunction*%
%TD*%
%TA.AperFunction,Conductor*%
%TO.N,/Green{slash}Clk1*%
G36*
X15613221Y-6482502D02*
G01*
X15659714Y-6536158D01*
X15671095Y-6587395D01*
X15694118Y-9212500D01*
X16505445Y-12061392D01*
X16515182Y-12095582D01*
X16520000Y-12130093D01*
X16520000Y-14186500D01*
X16499998Y-14254621D01*
X16446342Y-14301114D01*
X16394000Y-14312500D01*
X12458885Y-14312500D01*
X12390764Y-14292498D01*
X12369790Y-14275595D01*
X12356905Y-14262710D01*
X12322879Y-14200398D01*
X12320000Y-14173615D01*
X12320000Y-12062500D01*
X12220080Y-9264740D01*
X12220000Y-9260243D01*
X12220000Y-6588500D01*
X12240002Y-6520379D01*
X12293658Y-6473886D01*
X12346000Y-6462500D01*
X15545100Y-6462500D01*
X15613221Y-6482502D01*
G37*
%TD.AperFunction*%
%TD*%
%TA.AperFunction,Conductor*%
%TO.N,/Red{slash}Dat0*%
G36*
X11762121Y-6482502D02*
G01*
X11808614Y-6536158D01*
X11820000Y-6588500D01*
X11820000Y-9462500D01*
X12019680Y-12258020D01*
X12020000Y-12266997D01*
X12020000Y-14186500D01*
X11999998Y-14254621D01*
X11946342Y-14301114D01*
X11894000Y-14312500D01*
X7946000Y-14312500D01*
X7877879Y-14292498D01*
X7831386Y-14238842D01*
X7820000Y-14186500D01*
X7820000Y-12174153D01*
X7821580Y-12154259D01*
X8219213Y-9667425D01*
X8219213Y-9667419D01*
X8220000Y-9662500D01*
X8220000Y-6588500D01*
X8240002Y-6520379D01*
X8293658Y-6473886D01*
X8346000Y-6462500D01*
X11694000Y-6462500D01*
X11762121Y-6482502D01*
G37*
%TD.AperFunction*%
%TD*%
%TA.AperFunction,Conductor*%
%TO.N,GND*%
G36*
X7462121Y-14632502D02*
G01*
X7508614Y-14686158D01*
X7520000Y-14738500D01*
X7520000Y-16836500D01*
X7499998Y-16904621D01*
X7446342Y-16951114D01*
X7394000Y-16962500D01*
X4846000Y-16962500D01*
X4777879Y-16942498D01*
X4731386Y-16888842D01*
X4720000Y-16836500D01*
X4720000Y-15538464D01*
X4740002Y-15470343D01*
X4793658Y-15423850D01*
X4827642Y-15413809D01*
X4880561Y-15406019D01*
X4942931Y-15375397D01*
X4998462Y-15362500D01*
X5320000Y-15362500D01*
X5320000Y-14738500D01*
X5340002Y-14670379D01*
X5393658Y-14623886D01*
X5446000Y-14612500D01*
X7394000Y-14612500D01*
X7462121Y-14632502D01*
G37*
%TD.AperFunction*%
%TD*%
%TA.AperFunction,Conductor*%
%TO.N,GND*%
G36*
X22412121Y-14632502D02*
G01*
X22458614Y-14686158D01*
X22470000Y-14738500D01*
X22470000Y-16789045D01*
X22449998Y-16857166D01*
X22396342Y-16903659D01*
X22346571Y-16915019D01*
X22189430Y-16918226D01*
X20146590Y-16959916D01*
X20078075Y-16941308D01*
X20054924Y-16923037D01*
X19006905Y-15875018D01*
X18972879Y-15812706D01*
X18970000Y-15785923D01*
X18970000Y-14738500D01*
X18990002Y-14670379D01*
X19043658Y-14623886D01*
X19096000Y-14612500D01*
X22344000Y-14612500D01*
X22412121Y-14632502D01*
G37*
%TD.AperFunction*%
%TD*%
%TA.AperFunction,Conductor*%
%TO.N,GND*%
G36*
X11649237Y-14632502D02*
G01*
X11670211Y-14649405D01*
X11753595Y-14732789D01*
X11787621Y-14795101D01*
X11790500Y-14821884D01*
X11790500Y-15383966D01*
X11787951Y-15407914D01*
X11787872Y-15409579D01*
X11785680Y-15419762D01*
X11786904Y-15430103D01*
X11789627Y-15453109D01*
X11789977Y-15459040D01*
X11790072Y-15459032D01*
X11790500Y-15464210D01*
X11790500Y-15469410D01*
X11791354Y-15474539D01*
X11791354Y-15474542D01*
X11793669Y-15488451D01*
X11794506Y-15494329D01*
X11800530Y-15545227D01*
X11804493Y-15553479D01*
X11805996Y-15562512D01*
X11810943Y-15571681D01*
X11810944Y-15571683D01*
X11830334Y-15607618D01*
X11833031Y-15612911D01*
X11851785Y-15651968D01*
X11851788Y-15651972D01*
X11855219Y-15659118D01*
X11858814Y-15663394D01*
X11860737Y-15665317D01*
X11862509Y-15667249D01*
X11862552Y-15667328D01*
X11862428Y-15667441D01*
X11862904Y-15667981D01*
X11865990Y-15673700D01*
X11873635Y-15680767D01*
X11905586Y-15710302D01*
X11909152Y-15713732D01*
X12003595Y-15808175D01*
X12037621Y-15870487D01*
X12040500Y-15897270D01*
X12040500Y-16836500D01*
X12020498Y-16904621D01*
X11966842Y-16951114D01*
X11914500Y-16962500D01*
X9396000Y-16962500D01*
X9327879Y-16942498D01*
X9281386Y-16888842D01*
X9270000Y-16836500D01*
X9270000Y-15538464D01*
X9290002Y-15470343D01*
X9343658Y-15423850D01*
X9377642Y-15413809D01*
X9430561Y-15406019D01*
X9492931Y-15375397D01*
X9548462Y-15362500D01*
X9870000Y-15362500D01*
X9870000Y-14738500D01*
X9890002Y-14670379D01*
X9943658Y-14623886D01*
X9996000Y-14612500D01*
X11581116Y-14612500D01*
X11649237Y-14632502D01*
G37*
%TD.AperFunction*%
%TD*%
%TA.AperFunction,Conductor*%
%TO.N,/Blue{slash}Dat1*%
G36*
X19000450Y-6482502D02*
G01*
X19046943Y-6536158D01*
X19050473Y-6544705D01*
X21162144Y-12241307D01*
X21170000Y-12285102D01*
X21170000Y-14186500D01*
X21149998Y-14254621D01*
X21096342Y-14301114D01*
X21044000Y-14312500D01*
X17247788Y-14312500D01*
X17179667Y-14292498D01*
X17134401Y-14240258D01*
X17134004Y-14237874D01*
X17129359Y-14229265D01*
X17129356Y-14229258D01*
X17109652Y-14192740D01*
X17106957Y-14187451D01*
X17088212Y-14148415D01*
X17084780Y-14141268D01*
X17081186Y-14136992D01*
X17079246Y-14135052D01*
X17077493Y-14133141D01*
X17077444Y-14133051D01*
X17077567Y-14132939D01*
X17077095Y-14132404D01*
X17074010Y-14126686D01*
X17034413Y-14090083D01*
X17030848Y-14086654D01*
X16956905Y-14012711D01*
X16922879Y-13950399D01*
X16920000Y-13923616D01*
X16920000Y-11862500D01*
X16124537Y-8978946D01*
X16120000Y-8945440D01*
X16120000Y-6588500D01*
X16140002Y-6520379D01*
X16193658Y-6473886D01*
X16246000Y-6462500D01*
X18932329Y-6462500D01*
X19000450Y-6482502D01*
G37*
%TD.AperFunction*%
%TD*%
%TA.AperFunction,Conductor*%
%TO.N,VDD*%
G36*
X49508121Y-136502D02*
G01*
X49554614Y-190158D01*
X49566000Y-242500D01*
X49566000Y-14736500D01*
X49545998Y-14804621D01*
X49492342Y-14851114D01*
X49440000Y-14862500D01*
X40449972Y-14862500D01*
X40393239Y-14849005D01*
X29200138Y-9204621D01*
X25987915Y-7584782D01*
X40862049Y-7584782D01*
X40870832Y-7818727D01*
X40918906Y-8047847D01*
X40920863Y-8052803D01*
X40920865Y-8052809D01*
X40989811Y-8227389D01*
X41004898Y-8265592D01*
X41126348Y-8465735D01*
X41129845Y-8469765D01*
X41217759Y-8571077D01*
X41279783Y-8642554D01*
X41283914Y-8645941D01*
X41456689Y-8787609D01*
X41456695Y-8787613D01*
X41460817Y-8790993D01*
X41664274Y-8906807D01*
X41884335Y-8986685D01*
X41889584Y-8987634D01*
X41889587Y-8987635D01*
X42110624Y-9027606D01*
X42110632Y-9027607D01*
X42114708Y-9028344D01*
X42132115Y-9029165D01*
X42137734Y-9029430D01*
X42137743Y-9029430D01*
X42139223Y-9029500D01*
X44553786Y-9029500D01*
X44728272Y-9014695D01*
X44733436Y-9013355D01*
X44733440Y-9013354D01*
X44949708Y-8957221D01*
X44949712Y-8957219D01*
X44954873Y-8955880D01*
X44979016Y-8945004D01*
X45163464Y-8861917D01*
X45163467Y-8861916D01*
X45168325Y-8859727D01*
X45362525Y-8728984D01*
X45453128Y-8642554D01*
X45528055Y-8571077D01*
X45531920Y-8567390D01*
X45671666Y-8379564D01*
X45777768Y-8170878D01*
X45847191Y-7947298D01*
X45847892Y-7942010D01*
X45877251Y-7720502D01*
X45877251Y-7720498D01*
X45877951Y-7715218D01*
X45869168Y-7481273D01*
X45821094Y-7252153D01*
X45819137Y-7247197D01*
X45819135Y-7247191D01*
X45737063Y-7039373D01*
X45737062Y-7039371D01*
X45735102Y-7034408D01*
X45613652Y-6834265D01*
X45525441Y-6732610D01*
X45463717Y-6661479D01*
X45463715Y-6661477D01*
X45460217Y-6657446D01*
X45359298Y-6574697D01*
X45283311Y-6512391D01*
X45283305Y-6512387D01*
X45279183Y-6509007D01*
X45075726Y-6393193D01*
X44855665Y-6313315D01*
X44850416Y-6312366D01*
X44850413Y-6312365D01*
X44629376Y-6272394D01*
X44629368Y-6272393D01*
X44625292Y-6271656D01*
X44607885Y-6270835D01*
X44602266Y-6270570D01*
X44602257Y-6270570D01*
X44600777Y-6270500D01*
X42186214Y-6270500D01*
X42011728Y-6285305D01*
X42006564Y-6286645D01*
X42006560Y-6286646D01*
X41790292Y-6342779D01*
X41790288Y-6342781D01*
X41785127Y-6344120D01*
X41780261Y-6346312D01*
X41576536Y-6438083D01*
X41576533Y-6438084D01*
X41571675Y-6440273D01*
X41377475Y-6571016D01*
X41373618Y-6574695D01*
X41373616Y-6574697D01*
X41282645Y-6661479D01*
X41208080Y-6732610D01*
X41068334Y-6920436D01*
X40962232Y-7129122D01*
X40892809Y-7352702D01*
X40892108Y-7357989D01*
X40892108Y-7357990D01*
X40866377Y-7552130D01*
X40862049Y-7584782D01*
X25987915Y-7584782D01*
X22870000Y-6012500D01*
X18158180Y-6025132D01*
X4238114Y-6062451D01*
X4238113Y-6062451D01*
X4220000Y-6062500D01*
X4220000Y-9136500D01*
X4199998Y-9204621D01*
X4146342Y-9251114D01*
X4094000Y-9262500D01*
X200000Y-9262500D01*
X131879Y-9242498D01*
X85386Y-9188842D01*
X74000Y-9136500D01*
X74000Y-242500D01*
X94002Y-174379D01*
X147658Y-127886D01*
X200000Y-116500D01*
X49440000Y-116500D01*
X49508121Y-136502D01*
G37*
%TD.AperFunction*%
%TD*%
M02*
