%TF.GenerationSoftware,KiCad,Pcbnew,(6.0.0)*%
%TF.CreationDate,2022-01-03T21:24:03+08:00*%
%TF.ProjectId,NodeMCU-32S-RGBWA-LED-driver,4e6f6465-4d43-4552-9d33-32532d524742,1*%
%TF.SameCoordinates,PX68d6610PY3c42a2c*%
%TF.FileFunction,Legend,Top*%
%TF.FilePolarity,Positive*%
%FSLAX46Y46*%
G04 Gerber Fmt 4.6, Leading zero omitted, Abs format (unit mm)*
G04 Created by KiCad (PCBNEW (6.0.0)) date 2022-01-03 21:24:03*
%MOMM*%
%LPD*%
G01*
G04 APERTURE LIST*
%ADD10C,0.100000*%
%ADD11C,0.150000*%
%ADD12C,0.300000*%
%ADD13C,0.200000*%
%ADD14C,0.120000*%
%ADD15C,0.127000*%
%ADD16C,0.400000*%
G04 APERTURE END LIST*
D10*
X3644761Y-25224880D02*
X4263809Y-25224880D01*
X3930476Y-25605833D01*
X4073333Y-25605833D01*
X4168571Y-25653452D01*
X4216190Y-25701071D01*
X4263809Y-25796309D01*
X4263809Y-26034404D01*
X4216190Y-26129642D01*
X4168571Y-26177261D01*
X4073333Y-26224880D01*
X3787619Y-26224880D01*
X3692380Y-26177261D01*
X3644761Y-26129642D01*
X4597142Y-25558214D02*
X4835238Y-26224880D01*
X5073333Y-25558214D01*
X5359047Y-25224880D02*
X5978095Y-25224880D01*
X5644761Y-25605833D01*
X5787619Y-25605833D01*
X5882857Y-25653452D01*
X5930476Y-25701071D01*
X5978095Y-25796309D01*
X5978095Y-26034404D01*
X5930476Y-26129642D01*
X5882857Y-26177261D01*
X5787619Y-26224880D01*
X5501904Y-26224880D01*
X5406666Y-26177261D01*
X5359047Y-26129642D01*
X7692380Y-25272500D02*
X7597142Y-25224880D01*
X7454285Y-25224880D01*
X7311428Y-25272500D01*
X7216190Y-25367738D01*
X7168571Y-25462976D01*
X7120952Y-25653452D01*
X7120952Y-25796309D01*
X7168571Y-25986785D01*
X7216190Y-26082023D01*
X7311428Y-26177261D01*
X7454285Y-26224880D01*
X7549523Y-26224880D01*
X7692380Y-26177261D01*
X7740000Y-26129642D01*
X7740000Y-25796309D01*
X7549523Y-25796309D01*
X8168571Y-26224880D02*
X8168571Y-25224880D01*
X8740000Y-26224880D01*
X8740000Y-25224880D01*
X9216190Y-26224880D02*
X9216190Y-25224880D01*
X9454285Y-25224880D01*
X9597142Y-25272500D01*
X9692380Y-25367738D01*
X9740000Y-25462976D01*
X9787619Y-25653452D01*
X9787619Y-25796309D01*
X9740000Y-25986785D01*
X9692380Y-26082023D01*
X9597142Y-26177261D01*
X9454285Y-26224880D01*
X9216190Y-26224880D01*
D11*
X10820000Y-18762500D02*
X12820000Y-18762500D01*
X24820000Y-18762500D02*
X22820000Y-18762500D01*
X2820000Y-18762500D02*
X4820000Y-18762500D01*
X18820000Y-18762500D02*
X16820000Y-18762500D01*
D10*
X13420000Y-12076785D02*
X13391428Y-12105357D01*
X13305714Y-12133928D01*
X13248571Y-12133928D01*
X13162857Y-12105357D01*
X13105714Y-12048214D01*
X13077142Y-11991071D01*
X13048571Y-11876785D01*
X13048571Y-11791071D01*
X13077142Y-11676785D01*
X13105714Y-11619642D01*
X13162857Y-11562500D01*
X13248571Y-11533928D01*
X13305714Y-11533928D01*
X13391428Y-11562500D01*
X13420000Y-11591071D01*
X13762857Y-12133928D02*
X13705714Y-12105357D01*
X13677142Y-12048214D01*
X13677142Y-11533928D01*
X13991428Y-12133928D02*
X13991428Y-11533928D01*
X14048571Y-11905357D02*
X14220000Y-12133928D01*
X14220000Y-11733928D02*
X13991428Y-11962500D01*
X14791428Y-12133928D02*
X14448571Y-12133928D01*
X14620000Y-12133928D02*
X14620000Y-11533928D01*
X14562857Y-11619642D01*
X14505714Y-11676785D01*
X14448571Y-11705357D01*
D12*
X17727142Y-10455357D02*
X17941428Y-10526785D01*
X18012857Y-10598214D01*
X18084285Y-10741071D01*
X18084285Y-10955357D01*
X18012857Y-11098214D01*
X17941428Y-11169642D01*
X17798571Y-11241071D01*
X17227142Y-11241071D01*
X17227142Y-9741071D01*
X17727142Y-9741071D01*
X17870000Y-9812500D01*
X17941428Y-9883928D01*
X18012857Y-10026785D01*
X18012857Y-10169642D01*
X17941428Y-10312500D01*
X17870000Y-10383928D01*
X17727142Y-10455357D01*
X17227142Y-10455357D01*
D13*
X37431904Y-13842500D02*
X37431904Y-14223452D01*
X37812857Y-14261547D01*
X37774761Y-14223452D01*
X37736666Y-14147261D01*
X37736666Y-13956785D01*
X37774761Y-13880595D01*
X37812857Y-13842500D01*
X37889047Y-13804404D01*
X38079523Y-13804404D01*
X38155714Y-13842500D01*
X38193809Y-13880595D01*
X38231904Y-13956785D01*
X38231904Y-14147261D01*
X38193809Y-14223452D01*
X38155714Y-14261547D01*
X37431904Y-13575833D02*
X38231904Y-13309166D01*
X37431904Y-13042500D01*
X37698571Y-12280595D02*
X37698571Y-11975833D01*
X37431904Y-12166309D02*
X38117619Y-12166309D01*
X38193809Y-12128214D01*
X38231904Y-12052023D01*
X38231904Y-11975833D01*
X38231904Y-11594880D02*
X38193809Y-11671071D01*
X38155714Y-11709166D01*
X38079523Y-11747261D01*
X37850952Y-11747261D01*
X37774761Y-11709166D01*
X37736666Y-11671071D01*
X37698571Y-11594880D01*
X37698571Y-11480595D01*
X37736666Y-11404404D01*
X37774761Y-11366309D01*
X37850952Y-11328214D01*
X38079523Y-11328214D01*
X38155714Y-11366309D01*
X38193809Y-11404404D01*
X38231904Y-11480595D01*
X38231904Y-11594880D01*
X38231904Y-9956785D02*
X38231904Y-10413928D01*
X38231904Y-10185357D02*
X37431904Y-10185357D01*
X37546190Y-10261547D01*
X37622380Y-10337738D01*
X37660476Y-10413928D01*
X37508095Y-9652023D02*
X37470000Y-9613928D01*
X37431904Y-9537738D01*
X37431904Y-9347261D01*
X37470000Y-9271071D01*
X37508095Y-9232976D01*
X37584285Y-9194880D01*
X37660476Y-9194880D01*
X37774761Y-9232976D01*
X38231904Y-9690119D01*
X38231904Y-9194880D01*
X37431904Y-8966309D02*
X38231904Y-8699642D01*
X37431904Y-8432976D01*
X38155714Y-8166309D02*
X38193809Y-8128214D01*
X38231904Y-8166309D01*
X38193809Y-8204404D01*
X38155714Y-8166309D01*
X38231904Y-8166309D01*
X37431904Y-6794880D02*
X37431904Y-7175833D01*
X37812857Y-7213928D01*
X37774761Y-7175833D01*
X37736666Y-7099642D01*
X37736666Y-6909166D01*
X37774761Y-6832976D01*
X37812857Y-6794880D01*
X37889047Y-6756785D01*
X38079523Y-6756785D01*
X38155714Y-6794880D01*
X38193809Y-6832976D01*
X38231904Y-6909166D01*
X38231904Y-7099642D01*
X38193809Y-7175833D01*
X38155714Y-7213928D01*
X38003333Y-6452023D02*
X38003333Y-6071071D01*
X38231904Y-6528214D02*
X37431904Y-6261547D01*
X38231904Y-5994880D01*
X38231904Y-5118690D02*
X37698571Y-5118690D01*
X37774761Y-5118690D02*
X37736666Y-5080595D01*
X37698571Y-5004404D01*
X37698571Y-4890119D01*
X37736666Y-4813928D01*
X37812857Y-4775833D01*
X38231904Y-4775833D01*
X37812857Y-4775833D02*
X37736666Y-4737738D01*
X37698571Y-4661547D01*
X37698571Y-4547261D01*
X37736666Y-4471071D01*
X37812857Y-4432976D01*
X38231904Y-4432976D01*
X38231904Y-3709166D02*
X37812857Y-3709166D01*
X37736666Y-3747261D01*
X37698571Y-3823452D01*
X37698571Y-3975833D01*
X37736666Y-4052023D01*
X38193809Y-3709166D02*
X38231904Y-3785357D01*
X38231904Y-3975833D01*
X38193809Y-4052023D01*
X38117619Y-4090119D01*
X38041428Y-4090119D01*
X37965238Y-4052023D01*
X37927142Y-3975833D01*
X37927142Y-3785357D01*
X37889047Y-3709166D01*
X38231904Y-3404404D02*
X37698571Y-2985357D01*
X37698571Y-3404404D02*
X38231904Y-2985357D01*
D10*
X8984285Y-12133928D02*
X8984285Y-11533928D01*
X9127142Y-11533928D01*
X9212857Y-11562500D01*
X9270000Y-11619642D01*
X9298571Y-11676785D01*
X9327142Y-11791071D01*
X9327142Y-11876785D01*
X9298571Y-11991071D01*
X9270000Y-12048214D01*
X9212857Y-12105357D01*
X9127142Y-12133928D01*
X8984285Y-12133928D01*
X9841428Y-12133928D02*
X9841428Y-11819642D01*
X9812857Y-11762500D01*
X9755714Y-11733928D01*
X9641428Y-11733928D01*
X9584285Y-11762500D01*
X9841428Y-12105357D02*
X9784285Y-12133928D01*
X9641428Y-12133928D01*
X9584285Y-12105357D01*
X9555714Y-12048214D01*
X9555714Y-11991071D01*
X9584285Y-11933928D01*
X9641428Y-11905357D01*
X9784285Y-11905357D01*
X9841428Y-11876785D01*
X10041428Y-11733928D02*
X10270000Y-11733928D01*
X10127142Y-11533928D02*
X10127142Y-12048214D01*
X10155714Y-12105357D01*
X10212857Y-12133928D01*
X10270000Y-12133928D01*
X10584285Y-11533928D02*
X10641428Y-11533928D01*
X10698571Y-11562500D01*
X10727142Y-11591071D01*
X10755714Y-11648214D01*
X10784285Y-11762500D01*
X10784285Y-11905357D01*
X10755714Y-12019642D01*
X10727142Y-12076785D01*
X10698571Y-12105357D01*
X10641428Y-12133928D01*
X10584285Y-12133928D01*
X10527142Y-12105357D01*
X10498571Y-12076785D01*
X10470000Y-12019642D01*
X10441428Y-11905357D01*
X10441428Y-11762500D01*
X10470000Y-11648214D01*
X10498571Y-11591071D01*
X10527142Y-11562500D01*
X10584285Y-11533928D01*
D12*
X14212857Y-9812500D02*
X14070000Y-9741071D01*
X13855714Y-9741071D01*
X13641428Y-9812500D01*
X13498571Y-9955357D01*
X13427142Y-10098214D01*
X13355714Y-10383928D01*
X13355714Y-10598214D01*
X13427142Y-10883928D01*
X13498571Y-11026785D01*
X13641428Y-11169642D01*
X13855714Y-11241071D01*
X13998571Y-11241071D01*
X14212857Y-11169642D01*
X14284285Y-11098214D01*
X14284285Y-10598214D01*
X13998571Y-10598214D01*
D10*
X5470000Y-12076785D02*
X5441428Y-12105357D01*
X5355714Y-12133928D01*
X5298571Y-12133928D01*
X5212857Y-12105357D01*
X5155714Y-12048214D01*
X5127142Y-11991071D01*
X5098571Y-11876785D01*
X5098571Y-11791071D01*
X5127142Y-11676785D01*
X5155714Y-11619642D01*
X5212857Y-11562500D01*
X5298571Y-11533928D01*
X5355714Y-11533928D01*
X5441428Y-11562500D01*
X5470000Y-11591071D01*
X5812857Y-12133928D02*
X5755714Y-12105357D01*
X5727142Y-12048214D01*
X5727142Y-11533928D01*
X6041428Y-12133928D02*
X6041428Y-11533928D01*
X6098571Y-11905357D02*
X6270000Y-12133928D01*
X6270000Y-11733928D02*
X6041428Y-11962500D01*
X6641428Y-11533928D02*
X6698571Y-11533928D01*
X6755714Y-11562500D01*
X6784285Y-11591071D01*
X6812857Y-11648214D01*
X6841428Y-11762500D01*
X6841428Y-11905357D01*
X6812857Y-12019642D01*
X6784285Y-12076785D01*
X6755714Y-12105357D01*
X6698571Y-12133928D01*
X6641428Y-12133928D01*
X6584285Y-12105357D01*
X6555714Y-12076785D01*
X6527142Y-12019642D01*
X6498571Y-11905357D01*
X6498571Y-11762500D01*
X6527142Y-11648214D01*
X6555714Y-11591071D01*
X6584285Y-11562500D01*
X6641428Y-11533928D01*
D12*
X1728571Y-10407142D02*
X2871428Y-10407142D01*
X2300000Y-10978571D02*
X2300000Y-9835714D01*
X20277142Y-9862500D02*
X20134285Y-9791071D01*
X19920000Y-9791071D01*
X19705714Y-9862500D01*
X19562857Y-10005357D01*
X19491428Y-10148214D01*
X19420000Y-10433928D01*
X19420000Y-10648214D01*
X19491428Y-10933928D01*
X19562857Y-11076785D01*
X19705714Y-11219642D01*
X19920000Y-11291071D01*
X20062857Y-11291071D01*
X20277142Y-11219642D01*
X20348571Y-11148214D01*
X20348571Y-10648214D01*
X20062857Y-10648214D01*
X20991428Y-11291071D02*
X20991428Y-9791071D01*
X21848571Y-11291071D01*
X21848571Y-9791071D01*
X22562857Y-11291071D02*
X22562857Y-9791071D01*
X22920000Y-9791071D01*
X23134285Y-9862500D01*
X23277142Y-10005357D01*
X23348571Y-10148214D01*
X23420000Y-10433928D01*
X23420000Y-10648214D01*
X23348571Y-10933928D01*
X23277142Y-11076785D01*
X23134285Y-11219642D01*
X22920000Y-11291071D01*
X22562857Y-11291071D01*
D10*
X16684285Y-12183928D02*
X16684285Y-11583928D01*
X16827142Y-11583928D01*
X16912857Y-11612500D01*
X16970000Y-11669642D01*
X16998571Y-11726785D01*
X17027142Y-11841071D01*
X17027142Y-11926785D01*
X16998571Y-12041071D01*
X16970000Y-12098214D01*
X16912857Y-12155357D01*
X16827142Y-12183928D01*
X16684285Y-12183928D01*
X17541428Y-12183928D02*
X17541428Y-11869642D01*
X17512857Y-11812500D01*
X17455714Y-11783928D01*
X17341428Y-11783928D01*
X17284285Y-11812500D01*
X17541428Y-12155357D02*
X17484285Y-12183928D01*
X17341428Y-12183928D01*
X17284285Y-12155357D01*
X17255714Y-12098214D01*
X17255714Y-12041071D01*
X17284285Y-11983928D01*
X17341428Y-11955357D01*
X17484285Y-11955357D01*
X17541428Y-11926785D01*
X17741428Y-11783928D02*
X17970000Y-11783928D01*
X17827142Y-11583928D02*
X17827142Y-12098214D01*
X17855714Y-12155357D01*
X17912857Y-12183928D01*
X17970000Y-12183928D01*
X18484285Y-12183928D02*
X18141428Y-12183928D01*
X18312857Y-12183928D02*
X18312857Y-11583928D01*
X18255714Y-11669642D01*
X18198571Y-11726785D01*
X18141428Y-11755357D01*
D12*
X5477142Y-9741071D02*
X5834285Y-11241071D01*
X6120000Y-10169642D01*
X6405714Y-11241071D01*
X6762857Y-9741071D01*
X10384285Y-11241071D02*
X9884285Y-10526785D01*
X9527142Y-11241071D02*
X9527142Y-9741071D01*
X10098571Y-9741071D01*
X10241428Y-9812500D01*
X10312857Y-9883928D01*
X10384285Y-10026785D01*
X10384285Y-10241071D01*
X10312857Y-10383928D01*
X10241428Y-10455357D01*
X10098571Y-10526785D01*
X9527142Y-10526785D01*
D11*
%TO.C,U1*%
X922380Y-36174404D02*
X1731904Y-36174404D01*
X1827142Y-36126785D01*
X1874761Y-36079166D01*
X1922380Y-35983928D01*
X1922380Y-35793452D01*
X1874761Y-35698214D01*
X1827142Y-35650595D01*
X1731904Y-35602976D01*
X922380Y-35602976D01*
X1922380Y-34602976D02*
X1922380Y-35174404D01*
X1922380Y-34888690D02*
X922380Y-34888690D01*
X1065238Y-34983928D01*
X1160476Y-35079166D01*
X1208095Y-35174404D01*
D10*
X38288095Y-43484880D02*
X38288095Y-42484880D01*
X38859523Y-43484880D01*
X38859523Y-42484880D01*
X39478571Y-43484880D02*
X39383333Y-43437261D01*
X39335714Y-43389642D01*
X39288095Y-43294404D01*
X39288095Y-43008690D01*
X39335714Y-42913452D01*
X39383333Y-42865833D01*
X39478571Y-42818214D01*
X39621428Y-42818214D01*
X39716666Y-42865833D01*
X39764285Y-42913452D01*
X39811904Y-43008690D01*
X39811904Y-43294404D01*
X39764285Y-43389642D01*
X39716666Y-43437261D01*
X39621428Y-43484880D01*
X39478571Y-43484880D01*
X40669047Y-43484880D02*
X40669047Y-42484880D01*
X40669047Y-43437261D02*
X40573809Y-43484880D01*
X40383333Y-43484880D01*
X40288095Y-43437261D01*
X40240476Y-43389642D01*
X40192857Y-43294404D01*
X40192857Y-43008690D01*
X40240476Y-42913452D01*
X40288095Y-42865833D01*
X40383333Y-42818214D01*
X40573809Y-42818214D01*
X40669047Y-42865833D01*
X41526190Y-43437261D02*
X41430952Y-43484880D01*
X41240476Y-43484880D01*
X41145238Y-43437261D01*
X41097619Y-43342023D01*
X41097619Y-42961071D01*
X41145238Y-42865833D01*
X41240476Y-42818214D01*
X41430952Y-42818214D01*
X41526190Y-42865833D01*
X41573809Y-42961071D01*
X41573809Y-43056309D01*
X41097619Y-43151547D01*
X42002380Y-43484880D02*
X42002380Y-42484880D01*
X42335714Y-43199166D01*
X42669047Y-42484880D01*
X42669047Y-43484880D01*
X43716666Y-43389642D02*
X43669047Y-43437261D01*
X43526190Y-43484880D01*
X43430952Y-43484880D01*
X43288095Y-43437261D01*
X43192857Y-43342023D01*
X43145238Y-43246785D01*
X43097619Y-43056309D01*
X43097619Y-42913452D01*
X43145238Y-42722976D01*
X43192857Y-42627738D01*
X43288095Y-42532500D01*
X43430952Y-42484880D01*
X43526190Y-42484880D01*
X43669047Y-42532500D01*
X43716666Y-42580119D01*
X44145238Y-42484880D02*
X44145238Y-43294404D01*
X44192857Y-43389642D01*
X44240476Y-43437261D01*
X44335714Y-43484880D01*
X44526190Y-43484880D01*
X44621428Y-43437261D01*
X44669047Y-43389642D01*
X44716666Y-43294404D01*
X44716666Y-42484880D01*
X45192857Y-43103928D02*
X45954761Y-43103928D01*
X46335714Y-42484880D02*
X46954761Y-42484880D01*
X46621428Y-42865833D01*
X46764285Y-42865833D01*
X46859523Y-42913452D01*
X46907142Y-42961071D01*
X46954761Y-43056309D01*
X46954761Y-43294404D01*
X46907142Y-43389642D01*
X46859523Y-43437261D01*
X46764285Y-43484880D01*
X46478571Y-43484880D01*
X46383333Y-43437261D01*
X46335714Y-43389642D01*
X47335714Y-42580119D02*
X47383333Y-42532500D01*
X47478571Y-42484880D01*
X47716666Y-42484880D01*
X47811904Y-42532500D01*
X47859523Y-42580119D01*
X47907142Y-42675357D01*
X47907142Y-42770595D01*
X47859523Y-42913452D01*
X47288095Y-43484880D01*
X47907142Y-43484880D01*
X48288095Y-43437261D02*
X48430952Y-43484880D01*
X48669047Y-43484880D01*
X48764285Y-43437261D01*
X48811904Y-43389642D01*
X48859523Y-43294404D01*
X48859523Y-43199166D01*
X48811904Y-43103928D01*
X48764285Y-43056309D01*
X48669047Y-43008690D01*
X48478571Y-42961071D01*
X48383333Y-42913452D01*
X48335714Y-42865833D01*
X48288095Y-42770595D01*
X48288095Y-42675357D01*
X48335714Y-42580119D01*
X48383333Y-42532500D01*
X48478571Y-42484880D01*
X48716666Y-42484880D01*
X48859523Y-42532500D01*
D11*
X48082380Y-36674404D02*
X48891904Y-36674404D01*
X48987142Y-36626785D01*
X49034761Y-36579166D01*
X49082380Y-36483928D01*
X49082380Y-36293452D01*
X49034761Y-36198214D01*
X48987142Y-36150595D01*
X48891904Y-36102976D01*
X48082380Y-36102976D01*
X49034761Y-35674404D02*
X49082380Y-35531547D01*
X49082380Y-35293452D01*
X49034761Y-35198214D01*
X48987142Y-35150595D01*
X48891904Y-35102976D01*
X48796666Y-35102976D01*
X48701428Y-35150595D01*
X48653809Y-35198214D01*
X48606190Y-35293452D01*
X48558571Y-35483928D01*
X48510952Y-35579166D01*
X48463333Y-35626785D01*
X48368095Y-35674404D01*
X48272857Y-35674404D01*
X48177619Y-35626785D01*
X48130000Y-35579166D01*
X48082380Y-35483928D01*
X48082380Y-35245833D01*
X48130000Y-35102976D01*
X48558571Y-34341071D02*
X48606190Y-34198214D01*
X48653809Y-34150595D01*
X48749047Y-34102976D01*
X48891904Y-34102976D01*
X48987142Y-34150595D01*
X49034761Y-34198214D01*
X49082380Y-34293452D01*
X49082380Y-34674404D01*
X48082380Y-34674404D01*
X48082380Y-34341071D01*
X48130000Y-34245833D01*
X48177619Y-34198214D01*
X48272857Y-34150595D01*
X48368095Y-34150595D01*
X48463333Y-34198214D01*
X48510952Y-34245833D01*
X48558571Y-34341071D01*
X48558571Y-34674404D01*
%TO.C,R6*%
X13272380Y-21629166D02*
X12796190Y-21962500D01*
X13272380Y-22200595D02*
X12272380Y-22200595D01*
X12272380Y-21819642D01*
X12320000Y-21724404D01*
X12367619Y-21676785D01*
X12462857Y-21629166D01*
X12605714Y-21629166D01*
X12700952Y-21676785D01*
X12748571Y-21724404D01*
X12796190Y-21819642D01*
X12796190Y-22200595D01*
X12272380Y-20772023D02*
X12272380Y-20962500D01*
X12320000Y-21057738D01*
X12367619Y-21105357D01*
X12510476Y-21200595D01*
X12700952Y-21248214D01*
X13081904Y-21248214D01*
X13177142Y-21200595D01*
X13224761Y-21152976D01*
X13272380Y-21057738D01*
X13272380Y-20867261D01*
X13224761Y-20772023D01*
X13177142Y-20724404D01*
X13081904Y-20676785D01*
X12843809Y-20676785D01*
X12748571Y-20724404D01*
X12700952Y-20772023D01*
X12653333Y-20867261D01*
X12653333Y-21057738D01*
X12700952Y-21152976D01*
X12748571Y-21200595D01*
X12843809Y-21248214D01*
%TO.C,R12*%
X20177142Y-22214880D02*
X19843809Y-21738690D01*
X19605714Y-22214880D02*
X19605714Y-21214880D01*
X19986666Y-21214880D01*
X20081904Y-21262500D01*
X20129523Y-21310119D01*
X20177142Y-21405357D01*
X20177142Y-21548214D01*
X20129523Y-21643452D01*
X20081904Y-21691071D01*
X19986666Y-21738690D01*
X19605714Y-21738690D01*
X21129523Y-22214880D02*
X20558095Y-22214880D01*
X20843809Y-22214880D02*
X20843809Y-21214880D01*
X20748571Y-21357738D01*
X20653333Y-21452976D01*
X20558095Y-21500595D01*
X21510476Y-21310119D02*
X21558095Y-21262500D01*
X21653333Y-21214880D01*
X21891428Y-21214880D01*
X21986666Y-21262500D01*
X22034285Y-21310119D01*
X22081904Y-21405357D01*
X22081904Y-21500595D01*
X22034285Y-21643452D01*
X21462857Y-22214880D01*
X22081904Y-22214880D01*
%TO.C,R2*%
X11272380Y-21629166D02*
X10796190Y-21962500D01*
X11272380Y-22200595D02*
X10272380Y-22200595D01*
X10272380Y-21819642D01*
X10320000Y-21724404D01*
X10367619Y-21676785D01*
X10462857Y-21629166D01*
X10605714Y-21629166D01*
X10700952Y-21676785D01*
X10748571Y-21724404D01*
X10796190Y-21819642D01*
X10796190Y-22200595D01*
X10367619Y-21248214D02*
X10320000Y-21200595D01*
X10272380Y-21105357D01*
X10272380Y-20867261D01*
X10320000Y-20772023D01*
X10367619Y-20724404D01*
X10462857Y-20676785D01*
X10558095Y-20676785D01*
X10700952Y-20724404D01*
X11272380Y-21295833D01*
X11272380Y-20676785D01*
%TO.C,R7*%
X19272380Y-21629166D02*
X18796190Y-21962500D01*
X19272380Y-22200595D02*
X18272380Y-22200595D01*
X18272380Y-21819642D01*
X18320000Y-21724404D01*
X18367619Y-21676785D01*
X18462857Y-21629166D01*
X18605714Y-21629166D01*
X18700952Y-21676785D01*
X18748571Y-21724404D01*
X18796190Y-21819642D01*
X18796190Y-22200595D01*
X18272380Y-21295833D02*
X18272380Y-20629166D01*
X19272380Y-21057738D01*
%TO.C,U2*%
X35358095Y-15414880D02*
X35358095Y-16224404D01*
X35405714Y-16319642D01*
X35453333Y-16367261D01*
X35548571Y-16414880D01*
X35739047Y-16414880D01*
X35834285Y-16367261D01*
X35881904Y-16319642D01*
X35929523Y-16224404D01*
X35929523Y-15414880D01*
X36358095Y-15510119D02*
X36405714Y-15462500D01*
X36500952Y-15414880D01*
X36739047Y-15414880D01*
X36834285Y-15462500D01*
X36881904Y-15510119D01*
X36929523Y-15605357D01*
X36929523Y-15700595D01*
X36881904Y-15843452D01*
X36310476Y-16414880D01*
X36929523Y-16414880D01*
%TO.C,R5*%
X3272380Y-21629166D02*
X2796190Y-21962500D01*
X3272380Y-22200595D02*
X2272380Y-22200595D01*
X2272380Y-21819642D01*
X2320000Y-21724404D01*
X2367619Y-21676785D01*
X2462857Y-21629166D01*
X2605714Y-21629166D01*
X2700952Y-21676785D01*
X2748571Y-21724404D01*
X2796190Y-21819642D01*
X2796190Y-22200595D01*
X2272380Y-20724404D02*
X2272380Y-21200595D01*
X2748571Y-21248214D01*
X2700952Y-21200595D01*
X2653333Y-21105357D01*
X2653333Y-20867261D01*
X2700952Y-20772023D01*
X2748571Y-20724404D01*
X2843809Y-20676785D01*
X3081904Y-20676785D01*
X3177142Y-20724404D01*
X3224761Y-20772023D01*
X3272380Y-20867261D01*
X3272380Y-21105357D01*
X3224761Y-21200595D01*
X3177142Y-21248214D01*
%TO.C,R4*%
X23272380Y-21629166D02*
X22796190Y-21962500D01*
X23272380Y-22200595D02*
X22272380Y-22200595D01*
X22272380Y-21819642D01*
X22320000Y-21724404D01*
X22367619Y-21676785D01*
X22462857Y-21629166D01*
X22605714Y-21629166D01*
X22700952Y-21676785D01*
X22748571Y-21724404D01*
X22796190Y-21819642D01*
X22796190Y-22200595D01*
X22605714Y-20772023D02*
X23272380Y-20772023D01*
X22224761Y-21010119D02*
X22939047Y-21248214D01*
X22939047Y-20629166D01*
%TO.C,R3*%
X17322380Y-21629166D02*
X16846190Y-21962500D01*
X17322380Y-22200595D02*
X16322380Y-22200595D01*
X16322380Y-21819642D01*
X16370000Y-21724404D01*
X16417619Y-21676785D01*
X16512857Y-21629166D01*
X16655714Y-21629166D01*
X16750952Y-21676785D01*
X16798571Y-21724404D01*
X16846190Y-21819642D01*
X16846190Y-22200595D01*
X16322380Y-21295833D02*
X16322380Y-20676785D01*
X16703333Y-21010119D01*
X16703333Y-20867261D01*
X16750952Y-20772023D01*
X16798571Y-20724404D01*
X16893809Y-20676785D01*
X17131904Y-20676785D01*
X17227142Y-20724404D01*
X17274761Y-20772023D01*
X17322380Y-20867261D01*
X17322380Y-21152976D01*
X17274761Y-21248214D01*
X17227142Y-21295833D01*
%TO.C,Q1*%
X3724761Y-16910119D02*
X3629523Y-16862500D01*
X3534285Y-16767261D01*
X3391428Y-16624404D01*
X3296190Y-16576785D01*
X3200952Y-16576785D01*
X3248571Y-16814880D02*
X3153333Y-16767261D01*
X3058095Y-16672023D01*
X3010476Y-16481547D01*
X3010476Y-16148214D01*
X3058095Y-15957738D01*
X3153333Y-15862500D01*
X3248571Y-15814880D01*
X3439047Y-15814880D01*
X3534285Y-15862500D01*
X3629523Y-15957738D01*
X3677142Y-16148214D01*
X3677142Y-16481547D01*
X3629523Y-16672023D01*
X3534285Y-16767261D01*
X3439047Y-16814880D01*
X3248571Y-16814880D01*
X4629523Y-16814880D02*
X4058095Y-16814880D01*
X4343809Y-16814880D02*
X4343809Y-15814880D01*
X4248571Y-15957738D01*
X4153333Y-16052976D01*
X4058095Y-16100595D01*
%TO.C,R9*%
X7272380Y-21629166D02*
X6796190Y-21962500D01*
X7272380Y-22200595D02*
X6272380Y-22200595D01*
X6272380Y-21819642D01*
X6320000Y-21724404D01*
X6367619Y-21676785D01*
X6462857Y-21629166D01*
X6605714Y-21629166D01*
X6700952Y-21676785D01*
X6748571Y-21724404D01*
X6796190Y-21819642D01*
X6796190Y-22200595D01*
X7272380Y-21152976D02*
X7272380Y-20962500D01*
X7224761Y-20867261D01*
X7177142Y-20819642D01*
X7034285Y-20724404D01*
X6843809Y-20676785D01*
X6462857Y-20676785D01*
X6367619Y-20724404D01*
X6320000Y-20772023D01*
X6272380Y-20867261D01*
X6272380Y-21057738D01*
X6320000Y-21152976D01*
X6367619Y-21200595D01*
X6462857Y-21248214D01*
X6700952Y-21248214D01*
X6796190Y-21200595D01*
X6843809Y-21152976D01*
X6891428Y-21057738D01*
X6891428Y-20867261D01*
X6843809Y-20772023D01*
X6796190Y-20724404D01*
X6700952Y-20676785D01*
%TO.C,Q2*%
X8274761Y-16910119D02*
X8179523Y-16862500D01*
X8084285Y-16767261D01*
X7941428Y-16624404D01*
X7846190Y-16576785D01*
X7750952Y-16576785D01*
X7798571Y-16814880D02*
X7703333Y-16767261D01*
X7608095Y-16672023D01*
X7560476Y-16481547D01*
X7560476Y-16148214D01*
X7608095Y-15957738D01*
X7703333Y-15862500D01*
X7798571Y-15814880D01*
X7989047Y-15814880D01*
X8084285Y-15862500D01*
X8179523Y-15957738D01*
X8227142Y-16148214D01*
X8227142Y-16481547D01*
X8179523Y-16672023D01*
X8084285Y-16767261D01*
X7989047Y-16814880D01*
X7798571Y-16814880D01*
X8608095Y-15910119D02*
X8655714Y-15862500D01*
X8750952Y-15814880D01*
X8989047Y-15814880D01*
X9084285Y-15862500D01*
X9131904Y-15910119D01*
X9179523Y-16005357D01*
X9179523Y-16100595D01*
X9131904Y-16243452D01*
X8560476Y-16814880D01*
X9179523Y-16814880D01*
%TO.C,Q4*%
X17224761Y-16910119D02*
X17129523Y-16862500D01*
X17034285Y-16767261D01*
X16891428Y-16624404D01*
X16796190Y-16576785D01*
X16700952Y-16576785D01*
X16748571Y-16814880D02*
X16653333Y-16767261D01*
X16558095Y-16672023D01*
X16510476Y-16481547D01*
X16510476Y-16148214D01*
X16558095Y-15957738D01*
X16653333Y-15862500D01*
X16748571Y-15814880D01*
X16939047Y-15814880D01*
X17034285Y-15862500D01*
X17129523Y-15957738D01*
X17177142Y-16148214D01*
X17177142Y-16481547D01*
X17129523Y-16672023D01*
X17034285Y-16767261D01*
X16939047Y-16814880D01*
X16748571Y-16814880D01*
X18034285Y-16148214D02*
X18034285Y-16814880D01*
X17796190Y-15767261D02*
X17558095Y-16481547D01*
X18177142Y-16481547D01*
%TO.C,J2*%
X1753333Y-11695833D02*
X1753333Y-12695833D01*
X1686666Y-12895833D01*
X1553333Y-13029166D01*
X1353333Y-13095833D01*
X1220000Y-13095833D01*
X2353333Y-11829166D02*
X2420000Y-11762500D01*
X2553333Y-11695833D01*
X2886666Y-11695833D01*
X3020000Y-11762500D01*
X3086666Y-11829166D01*
X3153333Y-11962500D01*
X3153333Y-12095833D01*
X3086666Y-12295833D01*
X2286666Y-13095833D01*
X3153333Y-13095833D01*
%TO.C,R10*%
X8127142Y-22214880D02*
X7793809Y-21738690D01*
X7555714Y-22214880D02*
X7555714Y-21214880D01*
X7936666Y-21214880D01*
X8031904Y-21262500D01*
X8079523Y-21310119D01*
X8127142Y-21405357D01*
X8127142Y-21548214D01*
X8079523Y-21643452D01*
X8031904Y-21691071D01*
X7936666Y-21738690D01*
X7555714Y-21738690D01*
X9079523Y-22214880D02*
X8508095Y-22214880D01*
X8793809Y-22214880D02*
X8793809Y-21214880D01*
X8698571Y-21357738D01*
X8603333Y-21452976D01*
X8508095Y-21500595D01*
X9698571Y-21214880D02*
X9793809Y-21214880D01*
X9889047Y-21262500D01*
X9936666Y-21310119D01*
X9984285Y-21405357D01*
X10031904Y-21595833D01*
X10031904Y-21833928D01*
X9984285Y-22024404D01*
X9936666Y-22119642D01*
X9889047Y-22167261D01*
X9793809Y-22214880D01*
X9698571Y-22214880D01*
X9603333Y-22167261D01*
X9555714Y-22119642D01*
X9508095Y-22024404D01*
X9460476Y-21833928D01*
X9460476Y-21595833D01*
X9508095Y-21405357D01*
X9555714Y-21310119D01*
X9603333Y-21262500D01*
X9698571Y-21214880D01*
%TO.C,R8*%
X25272380Y-21629166D02*
X24796190Y-21962500D01*
X25272380Y-22200595D02*
X24272380Y-22200595D01*
X24272380Y-21819642D01*
X24320000Y-21724404D01*
X24367619Y-21676785D01*
X24462857Y-21629166D01*
X24605714Y-21629166D01*
X24700952Y-21676785D01*
X24748571Y-21724404D01*
X24796190Y-21819642D01*
X24796190Y-22200595D01*
X24700952Y-21057738D02*
X24653333Y-21152976D01*
X24605714Y-21200595D01*
X24510476Y-21248214D01*
X24462857Y-21248214D01*
X24367619Y-21200595D01*
X24320000Y-21152976D01*
X24272380Y-21057738D01*
X24272380Y-20867261D01*
X24320000Y-20772023D01*
X24367619Y-20724404D01*
X24462857Y-20676785D01*
X24510476Y-20676785D01*
X24605714Y-20724404D01*
X24653333Y-20772023D01*
X24700952Y-20867261D01*
X24700952Y-21057738D01*
X24748571Y-21152976D01*
X24796190Y-21200595D01*
X24891428Y-21248214D01*
X25081904Y-21248214D01*
X25177142Y-21200595D01*
X25224761Y-21152976D01*
X25272380Y-21057738D01*
X25272380Y-20867261D01*
X25224761Y-20772023D01*
X25177142Y-20724404D01*
X25081904Y-20676785D01*
X24891428Y-20676785D01*
X24796190Y-20724404D01*
X24748571Y-20772023D01*
X24700952Y-20867261D01*
%TO.C,C2*%
X45953333Y-19519642D02*
X45905714Y-19567261D01*
X45762857Y-19614880D01*
X45667619Y-19614880D01*
X45524761Y-19567261D01*
X45429523Y-19472023D01*
X45381904Y-19376785D01*
X45334285Y-19186309D01*
X45334285Y-19043452D01*
X45381904Y-18852976D01*
X45429523Y-18757738D01*
X45524761Y-18662500D01*
X45667619Y-18614880D01*
X45762857Y-18614880D01*
X45905714Y-18662500D01*
X45953333Y-18710119D01*
X46334285Y-18710119D02*
X46381904Y-18662500D01*
X46477142Y-18614880D01*
X46715238Y-18614880D01*
X46810476Y-18662500D01*
X46858095Y-18710119D01*
X46905714Y-18805357D01*
X46905714Y-18900595D01*
X46858095Y-19043452D01*
X46286666Y-19614880D01*
X46905714Y-19614880D01*
%TO.C,Q3*%
X12924761Y-16910119D02*
X12829523Y-16862500D01*
X12734285Y-16767261D01*
X12591428Y-16624404D01*
X12496190Y-16576785D01*
X12400952Y-16576785D01*
X12448571Y-16814880D02*
X12353333Y-16767261D01*
X12258095Y-16672023D01*
X12210476Y-16481547D01*
X12210476Y-16148214D01*
X12258095Y-15957738D01*
X12353333Y-15862500D01*
X12448571Y-15814880D01*
X12639047Y-15814880D01*
X12734285Y-15862500D01*
X12829523Y-15957738D01*
X12877142Y-16148214D01*
X12877142Y-16481547D01*
X12829523Y-16672023D01*
X12734285Y-16767261D01*
X12639047Y-16814880D01*
X12448571Y-16814880D01*
X13210476Y-15814880D02*
X13829523Y-15814880D01*
X13496190Y-16195833D01*
X13639047Y-16195833D01*
X13734285Y-16243452D01*
X13781904Y-16291071D01*
X13829523Y-16386309D01*
X13829523Y-16624404D01*
X13781904Y-16719642D01*
X13734285Y-16767261D01*
X13639047Y-16814880D01*
X13353333Y-16814880D01*
X13258095Y-16767261D01*
X13210476Y-16719642D01*
%TO.C,C1*%
X45253333Y-15939642D02*
X45205714Y-15987261D01*
X45062857Y-16034880D01*
X44967619Y-16034880D01*
X44824761Y-15987261D01*
X44729523Y-15892023D01*
X44681904Y-15796785D01*
X44634285Y-15606309D01*
X44634285Y-15463452D01*
X44681904Y-15272976D01*
X44729523Y-15177738D01*
X44824761Y-15082500D01*
X44967619Y-15034880D01*
X45062857Y-15034880D01*
X45205714Y-15082500D01*
X45253333Y-15130119D01*
X46205714Y-16034880D02*
X45634285Y-16034880D01*
X45920000Y-16034880D02*
X45920000Y-15034880D01*
X45824761Y-15177738D01*
X45729523Y-15272976D01*
X45634285Y-15320595D01*
%TO.C,R1*%
X5272380Y-21629166D02*
X4796190Y-21962500D01*
X5272380Y-22200595D02*
X4272380Y-22200595D01*
X4272380Y-21819642D01*
X4320000Y-21724404D01*
X4367619Y-21676785D01*
X4462857Y-21629166D01*
X4605714Y-21629166D01*
X4700952Y-21676785D01*
X4748571Y-21724404D01*
X4796190Y-21819642D01*
X4796190Y-22200595D01*
X5272380Y-20676785D02*
X5272380Y-21248214D01*
X5272380Y-20962500D02*
X4272380Y-20962500D01*
X4415238Y-21057738D01*
X4510476Y-21152976D01*
X4558095Y-21248214D01*
%TO.C,R11*%
X14127142Y-22214880D02*
X13793809Y-21738690D01*
X13555714Y-22214880D02*
X13555714Y-21214880D01*
X13936666Y-21214880D01*
X14031904Y-21262500D01*
X14079523Y-21310119D01*
X14127142Y-21405357D01*
X14127142Y-21548214D01*
X14079523Y-21643452D01*
X14031904Y-21691071D01*
X13936666Y-21738690D01*
X13555714Y-21738690D01*
X15079523Y-22214880D02*
X14508095Y-22214880D01*
X14793809Y-22214880D02*
X14793809Y-21214880D01*
X14698571Y-21357738D01*
X14603333Y-21452976D01*
X14508095Y-21500595D01*
X16031904Y-22214880D02*
X15460476Y-22214880D01*
X15746190Y-22214880D02*
X15746190Y-21214880D01*
X15650952Y-21357738D01*
X15555714Y-21452976D01*
X15460476Y-21500595D01*
%TO.C,J1*%
X47086362Y-15064380D02*
X47086362Y-15779318D01*
X47038699Y-15922306D01*
X46943374Y-16017631D01*
X46800387Y-16065293D01*
X46705062Y-16065293D01*
X48087275Y-16065293D02*
X47515325Y-16065293D01*
X47801300Y-16065293D02*
X47801300Y-15064380D01*
X47705975Y-15207368D01*
X47610650Y-15302693D01*
X47515325Y-15350356D01*
D14*
%TO.C,U1*%
X1810000Y-22482500D02*
X1810000Y-31102500D01*
X49730000Y-48342500D02*
X49730000Y-22482501D01*
X1810000Y-31102500D02*
X2170000Y-31102500D01*
X49730000Y-22482501D02*
X1810000Y-22482500D01*
X1810000Y-48342499D02*
X49730000Y-48342500D01*
X1810000Y-39722499D02*
X1810000Y-48342499D01*
X2170000Y-31102500D02*
X2170000Y-39722499D01*
X2170000Y-39722499D02*
X1810000Y-39722499D01*
%TO.C,R6*%
X12085000Y-18989564D02*
X12085000Y-18535436D01*
X13555000Y-18989564D02*
X13555000Y-18535436D01*
%TO.C,R12*%
X20085000Y-18989564D02*
X20085000Y-18535436D01*
X21555000Y-18989564D02*
X21555000Y-18535436D01*
%TO.C,R2*%
X10085000Y-18989564D02*
X10085000Y-18535436D01*
X11555000Y-18989564D02*
X11555000Y-18535436D01*
%TO.C,R7*%
X18085000Y-18989564D02*
X18085000Y-18535436D01*
X19555000Y-18989564D02*
X19555000Y-18535436D01*
%TO.C,U2*%
X37360000Y-15452500D02*
X37360000Y-16712500D01*
X37360000Y-22272500D02*
X37360000Y-21012500D01*
X41120000Y-15452500D02*
X37360000Y-15452500D01*
X43370000Y-22272500D02*
X37360000Y-22272500D01*
%TO.C,R5*%
X2085000Y-18989564D02*
X2085000Y-18535436D01*
X3555000Y-18989564D02*
X3555000Y-18535436D01*
%TO.C,R4*%
X22085000Y-18989564D02*
X22085000Y-18535436D01*
X23555000Y-18989564D02*
X23555000Y-18535436D01*
%TO.C,R3*%
X16085000Y-18989564D02*
X16085000Y-18535436D01*
X17555000Y-18989564D02*
X17555000Y-18535436D01*
%TO.C,Q1*%
X5320000Y-12402500D02*
X6070000Y-12402500D01*
X5320000Y-15522500D02*
X4570000Y-15522500D01*
X5320000Y-15522500D02*
X6070000Y-15522500D01*
X5320000Y-12402500D02*
X3470000Y-12402500D01*
%TO.C,R9*%
X6085000Y-18989564D02*
X6085000Y-18535436D01*
X7555000Y-18989564D02*
X7555000Y-18535436D01*
%TO.C,Q2*%
X9870000Y-12402500D02*
X10620000Y-12402500D01*
X9870000Y-15522500D02*
X9120000Y-15522500D01*
X9870000Y-15522500D02*
X10620000Y-15522500D01*
X9870000Y-12402500D02*
X8020000Y-12402500D01*
%TO.C,Q4*%
X19020000Y-12402500D02*
X19770000Y-12402500D01*
X19020000Y-15522500D02*
X18270000Y-15522500D01*
X19020000Y-15522500D02*
X19770000Y-15522500D01*
X19020000Y-12402500D02*
X17170000Y-12402500D01*
D15*
%TO.C,J2*%
X0Y-9200000D02*
X1000000Y-9200000D01*
X0Y0D02*
X23650000Y0D01*
X0Y-9200000D02*
X0Y0D01*
X23650000Y0D02*
X23650000Y-9200000D01*
X23650000Y-9200000D02*
X22650000Y-9200000D01*
D13*
X2400000Y-10200000D02*
G75*
G03*
X2400000Y-10200000I-100000J0D01*
G01*
D14*
%TO.C,R10*%
X8085000Y-18989564D02*
X8085000Y-18535436D01*
X9555000Y-18989564D02*
X9555000Y-18535436D01*
%TO.C,R8*%
X24085000Y-18989564D02*
X24085000Y-18535436D01*
X25555000Y-18989564D02*
X25555000Y-18535436D01*
%TO.C,C2*%
X44930000Y-19721920D02*
X44930000Y-20003080D01*
X43910000Y-19721920D02*
X43910000Y-20003080D01*
%TO.C,Q3*%
X14420000Y-12402500D02*
X15170000Y-12402500D01*
X14420000Y-15522500D02*
X13670000Y-15522500D01*
X14420000Y-15522500D02*
X15170000Y-15522500D01*
X14420000Y-12402500D02*
X12570000Y-12402500D01*
%TO.C,C1*%
X45158748Y-16527500D02*
X45681252Y-16527500D01*
X45158748Y-17997500D02*
X45681252Y-17997500D01*
%TO.C,R1*%
X4085000Y-18989564D02*
X4085000Y-18535436D01*
X5555000Y-18989564D02*
X5555000Y-18535436D01*
%TO.C,R11*%
X14085000Y-18989564D02*
X14085000Y-18535436D01*
X15555000Y-18989564D02*
X15555000Y-18535436D01*
D15*
%TO.C,J1*%
X38870000Y50000D02*
X47870000Y50000D01*
X38870000Y-14450000D02*
X38870000Y50000D01*
X40820000Y-14450000D02*
X38870000Y-14450000D01*
X47870000Y50000D02*
X47870000Y-14450000D01*
X47870000Y-14450000D02*
X46020000Y-14450000D01*
D16*
X43570000Y-15650000D02*
G75*
G03*
X43570000Y-15650000I-200000J0D01*
G01*
%TD*%
M02*
