%TF.GenerationSoftware,KiCad,Pcbnew,(6.0.0)*%
%TF.CreationDate,2022-01-03T21:24:03+08:00*%
%TF.ProjectId,NodeMCU-32S-RGBWA-LED-driver,4e6f6465-4d43-4552-9d33-32532d524742,1*%
%TF.SameCoordinates,PX68d6610PY3c42a2c*%
%TF.FileFunction,Soldermask,Bot*%
%TF.FilePolarity,Negative*%
%FSLAX46Y46*%
G04 Gerber Fmt 4.6, Leading zero omitted, Abs format (unit mm)*
G04 Created by KiCad (PCBNEW (6.0.0)) date 2022-01-03 21:24:03*
%MOMM*%
%LPD*%
G01*
G04 APERTURE LIST*
%ADD10R,1.700000X1.700000*%
%ADD11O,1.700000X1.700000*%
%ADD12C,3.200000*%
%ADD13R,2.100000X2.100000*%
%ADD14C,2.100000*%
%ADD15O,5.000000X2.500000*%
%ADD16O,4.500000X2.250000*%
G04 APERTURE END LIST*
D10*
%TO.C,J9*%
X5450000Y-27582500D03*
D11*
X7990000Y-27582500D03*
X10530000Y-27582500D03*
X13070000Y-27582500D03*
X15610000Y-27582500D03*
X18150000Y-27582500D03*
X20690000Y-27582500D03*
X23230000Y-27582500D03*
X25770000Y-27582500D03*
X28310000Y-27582500D03*
X30850000Y-27582500D03*
%TD*%
%TO.C,J8*%
X30850000Y-30122500D03*
X28310000Y-30122500D03*
X25770000Y-30122500D03*
X23230000Y-30122500D03*
X20690000Y-30122500D03*
X18150000Y-30122500D03*
X15610000Y-30122500D03*
X13070000Y-30122500D03*
X10530000Y-30122500D03*
X7990000Y-30122500D03*
D10*
X5450000Y-30122500D03*
%TD*%
D11*
%TO.C,J7*%
X30850000Y-32662500D03*
X28310000Y-32662500D03*
X25770000Y-32662500D03*
X23230000Y-32662500D03*
X20690000Y-32662500D03*
X18150000Y-32662500D03*
X15610000Y-32662500D03*
X13070000Y-32662500D03*
X10530000Y-32662500D03*
X7990000Y-32662500D03*
D10*
X5450000Y-32662500D03*
%TD*%
D11*
%TO.C,J6*%
X30850000Y-35202500D03*
X28310000Y-35202500D03*
X25770000Y-35202500D03*
X23230000Y-35202500D03*
X20690000Y-35202500D03*
X18150000Y-35202500D03*
X15610000Y-35202500D03*
X13070000Y-35202500D03*
X10530000Y-35202500D03*
X7990000Y-35202500D03*
D10*
X5450000Y-35202500D03*
%TD*%
D11*
%TO.C,J5*%
X30850000Y-37742500D03*
X28310000Y-37742500D03*
X25770000Y-37742500D03*
X23230000Y-37742500D03*
X20690000Y-37742500D03*
X18150000Y-37742500D03*
X15610000Y-37742500D03*
X13070000Y-37742500D03*
X10530000Y-37742500D03*
X7990000Y-37742500D03*
D10*
X5450000Y-37742500D03*
%TD*%
D11*
%TO.C,J4*%
X30850000Y-40282500D03*
X28310000Y-40282500D03*
X25770000Y-40282500D03*
X23230000Y-40282500D03*
X20690000Y-40282500D03*
X18150000Y-40282500D03*
X15610000Y-40282500D03*
X13070000Y-40282500D03*
X10530000Y-40282500D03*
X7990000Y-40282500D03*
D10*
X5450000Y-40282500D03*
%TD*%
D11*
%TO.C,J3*%
X30850000Y-42822500D03*
X28310000Y-42822500D03*
X25770000Y-42822500D03*
X23230000Y-42822500D03*
X20690000Y-42822500D03*
X18150000Y-42822500D03*
X15610000Y-42822500D03*
X13070000Y-42822500D03*
X10530000Y-42822500D03*
X7990000Y-42822500D03*
D10*
X5450000Y-42822500D03*
%TD*%
%TO.C,U1*%
X2910000Y-46842500D03*
D11*
X5450000Y-46842500D03*
X7990000Y-46842500D03*
X10530000Y-46842500D03*
X13070000Y-46842500D03*
X15610000Y-46842500D03*
X18150000Y-46842500D03*
X20690000Y-46842500D03*
X23230000Y-46842500D03*
X25770000Y-46842500D03*
X28310000Y-46842500D03*
X30850000Y-46842500D03*
X33390000Y-46842500D03*
X35930000Y-46842500D03*
X38470000Y-46842500D03*
X41010000Y-46842500D03*
X43550000Y-46842500D03*
X46090000Y-46842500D03*
X48630000Y-46842500D03*
X48630000Y-23982500D03*
X46090000Y-23982500D03*
X43550000Y-23982500D03*
X41010000Y-23982500D03*
X38470000Y-23982500D03*
X35930000Y-23982500D03*
X33390000Y-23982500D03*
X30850000Y-23982500D03*
X28310000Y-23982500D03*
X25770000Y-23982500D03*
X23230000Y-23982500D03*
X20690000Y-23982500D03*
X18150000Y-23982500D03*
X15610000Y-23982500D03*
X13070000Y-23982500D03*
X10530000Y-23982500D03*
X7990000Y-23982500D03*
X5450000Y-23982500D03*
X2910000Y-23982500D03*
%TD*%
D12*
%TO.C,REF\u002A\u002A*%
X31270000Y-18712500D03*
%TD*%
D13*
%TO.C,J2*%
X2300000Y-8000000D03*
D14*
X6110000Y-8000000D03*
X9920000Y-8000000D03*
X13730000Y-8000000D03*
X17540000Y-8000000D03*
X21350000Y-8000000D03*
%TD*%
D15*
%TO.C,J1*%
X43370000Y-13650000D03*
D16*
X43370000Y-7650000D03*
%TD*%
M02*
