M48
; DRILL file {KiCad (6.0.0)} date Sun Jan  2 10:57:22 2022
; FORMAT={-:-/ absolute / inch / decimal}
; #@! TF.CreationDate,2022-01-02T10:57:22+08:00
; #@! TF.GenerationSoftware,Kicad,Pcbnew,(6.0.0)
; #@! TF.FileFunction,Plated,1,2,PTH
FMAT,2
INCH
; #@! TA.AperFunction,Plated,PTH,ViaDrill
T1C0.0157
; #@! TA.AperFunction,Plated,PTH,ViaDrill
T2C0.0236
; #@! TA.AperFunction,Plated,PTH,ComponentDrill
T3C0.0394
; #@! TA.AperFunction,Plated,PTH,ComponentDrill
T4C0.0551
%
G90
G05
T1
X0.2055Y-0.6206
X0.2055Y-0.6521
X0.239Y-0.6206
X0.239Y-0.6521
X0.2724Y-0.6206
X0.2724Y-0.6521
X0.3079Y-0.8076
X0.3846Y-0.6206
X0.3846Y-0.6521
X0.4181Y-0.6206
X0.4181Y-0.6521
X0.4516Y-0.6206
X0.4516Y-0.6521
X0.5638Y-0.6206
X0.5638Y-0.6521
X0.5847Y-0.8142
X0.5972Y-0.6206
X0.5972Y-0.6521
X0.6307Y-0.6206
X0.6307Y-0.6521
X0.7646Y-0.6206
X0.798Y-0.6206
X0.798Y-0.6521
X0.8315Y-0.6206
X0.8315Y-0.6521
X0.8472Y-0.591
X0.865Y-0.6206
X0.865Y-0.6521
X0.9417Y-0.6107
X0.9811Y-0.3273
X0.9811Y-0.368
X0.9811Y-0.4088
X0.9811Y-0.4496
X0.9811Y-0.4904
X0.9811Y-0.5311
X0.9811Y-0.5719
X0.9811Y-0.6127
T2
X1.8197Y-0.8056
T3
X0.1146Y-0.9442
X0.1146Y-1.8442
X0.2146Y-0.9442
X0.2146Y-1.8442
X0.3146Y-0.9442
X0.3146Y-1.8442
X0.4146Y-0.9442
X0.4146Y-1.8442
X0.5146Y-0.9442
X0.5146Y-1.8442
X0.6146Y-0.9442
X0.6146Y-1.8442
X0.7146Y-0.9442
X0.7146Y-1.8442
X0.8146Y-0.9442
X0.8146Y-1.8442
X0.9146Y-0.9442
X0.9146Y-1.8442
X1.0146Y-0.9442
X1.0146Y-1.8442
X1.1146Y-0.9442
X1.1146Y-1.8442
X1.2146Y-0.9442
X1.2146Y-1.8442
X1.3146Y-0.9442
X1.3146Y-1.8442
X1.4146Y-0.9442
X1.4146Y-1.8442
X1.5146Y-0.9442
X1.5146Y-1.8442
X1.6146Y-0.9442
X1.6146Y-1.8442
X1.7146Y-0.9442
X1.7146Y-1.8442
X1.8146Y-0.9442
X1.8146Y-1.8442
X1.9146Y-0.9442
X1.9146Y-1.8442
T4
X0.0906Y-0.315
X0.2406Y-0.315
X0.3906Y-0.315
X0.5406Y-0.315
X0.6906Y-0.315
T3
G00X1.6681Y-0.3012
M15
G01X1.7469Y-0.3012
M16
G05
G00X1.6583Y-0.5374
M15
G01X1.7567Y-0.5374
M16
G05
T0
M30
