%TF.GenerationSoftware,KiCad,Pcbnew,(6.0.0)*%
%TF.CreationDate,2022-01-02T08:39:00+08:00*%
%TF.ProjectId,NodeMCU-32S-RGBWA-LED-driver,4e6f6465-4d43-4552-9d33-32532d524742,1*%
%TF.SameCoordinates,PX68d6610PY3c42a2c*%
%TF.FileFunction,Soldermask,Top*%
%TF.FilePolarity,Negative*%
%FSLAX46Y46*%
G04 Gerber Fmt 4.6, Leading zero omitted, Abs format (unit mm)*
G04 Created by KiCad (PCBNEW (6.0.0)) date 2022-01-02 08:39:00*
%MOMM*%
%LPD*%
G01*
G04 APERTURE LIST*
G04 Aperture macros list*
%AMRoundRect*
0 Rectangle with rounded corners*
0 $1 Rounding radius*
0 $2 $3 $4 $5 $6 $7 $8 $9 X,Y pos of 4 corners*
0 Add a 4 corners polygon primitive as box body*
4,1,4,$2,$3,$4,$5,$6,$7,$8,$9,$2,$3,0*
0 Add four circle primitives for the rounded corners*
1,1,$1+$1,$2,$3*
1,1,$1+$1,$4,$5*
1,1,$1+$1,$6,$7*
1,1,$1+$1,$8,$9*
0 Add four rect primitives between the rounded corners*
20,1,$1+$1,$2,$3,$4,$5,0*
20,1,$1+$1,$4,$5,$6,$7,0*
20,1,$1+$1,$6,$7,$8,$9,0*
20,1,$1+$1,$8,$9,$2,$3,0*%
%AMFreePoly0*
4,1,6,1.000000,0.000000,0.500000,-0.750000,-0.500000,-0.750000,-0.500000,0.750000,0.500000,0.750000,1.000000,0.000000,1.000000,0.000000,$1*%
%AMFreePoly1*
4,1,6,0.500000,-0.750000,-0.650000,-0.750000,-0.150000,0.000000,-0.650000,0.750000,0.500000,0.750000,0.500000,-0.750000,0.500000,-0.750000,$1*%
G04 Aperture macros list end*
%ADD10RoundRect,0.250000X0.450000X-0.262500X0.450000X0.262500X-0.450000X0.262500X-0.450000X-0.262500X0*%
%ADD11FreePoly0,0.000000*%
%ADD12FreePoly1,0.000000*%
%ADD13C,3.200000*%
%ADD14R,2.000000X1.500000*%
%ADD15R,2.000000X3.800000*%
%ADD16RoundRect,0.125000X-0.587500X-0.125000X0.587500X-0.125000X0.587500X0.125000X-0.587500X0.125000X0*%
%ADD17R,1.700000X1.700000*%
%ADD18O,1.700000X1.700000*%
%ADD19RoundRect,0.225000X-0.250000X0.225000X-0.250000X-0.225000X0.250000X-0.225000X0.250000X0.225000X0*%
%ADD20RoundRect,0.250000X-0.250000X-0.475000X0.250000X-0.475000X0.250000X0.475000X-0.250000X0.475000X0*%
%ADD21R,2.100000X2.100000*%
%ADD22C,2.100000*%
%ADD23O,5.000000X2.500000*%
%ADD24O,4.500000X2.250000*%
G04 APERTURE END LIST*
D10*
%TO.C,R6*%
X12820000Y-19675000D03*
X12820000Y-17850000D03*
%TD*%
%TO.C,R11*%
X22820000Y-19675000D03*
X22820000Y-17850000D03*
%TD*%
D11*
%TO.C,JP3*%
X22095000Y-13562500D03*
D12*
X23545000Y-13562500D03*
%TD*%
D10*
%TO.C,R2*%
X10820000Y-19675000D03*
X10820000Y-17850000D03*
%TD*%
%TO.C,R7*%
X18820000Y-19675000D03*
X18820000Y-17850000D03*
%TD*%
D13*
%TO.C,REF\u002A\u002A*%
X31270000Y-18712500D03*
%TD*%
D11*
%TO.C,JP2*%
X22095000Y-11012500D03*
D12*
X23545000Y-11012500D03*
%TD*%
D14*
%TO.C,U2*%
X42420000Y-21162500D03*
X42420000Y-18862500D03*
D15*
X36120000Y-18862500D03*
D14*
X42420000Y-16562500D03*
%TD*%
D10*
%TO.C,R5*%
X2820000Y-19675000D03*
X2820000Y-17850000D03*
%TD*%
%TO.C,R4*%
X20820000Y-19675000D03*
X20820000Y-17850000D03*
%TD*%
%TO.C,R3*%
X16820000Y-19675000D03*
X16820000Y-17850000D03*
%TD*%
D16*
%TO.C,Q1*%
X6457500Y-13962500D03*
X4182500Y-13962500D03*
X4182500Y-13012500D03*
X6457500Y-13012500D03*
X4182500Y-14912500D03*
X6457500Y-14912500D03*
%TD*%
D17*
%TO.C,U1*%
X2910000Y-46842500D03*
D18*
X5450000Y-46842500D03*
X7990000Y-46842500D03*
X10530000Y-46842500D03*
X13070000Y-46842500D03*
X15610000Y-46842500D03*
X18150000Y-46842500D03*
X20690000Y-46842500D03*
X23230000Y-46842500D03*
X25770000Y-46842500D03*
X28310000Y-46842500D03*
X30850000Y-46842500D03*
X33390000Y-46842500D03*
X35930000Y-46842500D03*
X38470000Y-46842500D03*
X41010000Y-46842500D03*
X43550000Y-46842500D03*
X46090000Y-46842500D03*
X48630000Y-46842500D03*
X48630000Y-23982500D03*
X46090000Y-23982500D03*
X43550000Y-23982500D03*
X41010000Y-23982500D03*
X38470000Y-23982500D03*
X35930000Y-23982500D03*
X33390000Y-23982500D03*
X30850000Y-23982500D03*
X28310000Y-23982500D03*
X25770000Y-23982500D03*
X23230000Y-23982500D03*
X20690000Y-23982500D03*
X18150000Y-23982500D03*
X15610000Y-23982500D03*
X13070000Y-23982500D03*
X10530000Y-23982500D03*
X7990000Y-23982500D03*
X5450000Y-23982500D03*
X2910000Y-23982500D03*
%TD*%
D10*
%TO.C,R8*%
X6820000Y-19675000D03*
X6820000Y-17850000D03*
%TD*%
D16*
%TO.C,Q2*%
X8732500Y-13962500D03*
X8732500Y-13012500D03*
X11007500Y-13962500D03*
X11007500Y-13012500D03*
X8732500Y-14912500D03*
X11007500Y-14912500D03*
%TD*%
%TO.C,Q4*%
X20157500Y-13012500D03*
X20157500Y-13962500D03*
X17882500Y-13012500D03*
X17882500Y-13962500D03*
X17882500Y-14912500D03*
X20157500Y-14912500D03*
%TD*%
D11*
%TO.C,JP1*%
X22095000Y-8462500D03*
D12*
X23545000Y-8462500D03*
%TD*%
D10*
%TO.C,R9*%
X8820000Y-19675000D03*
X8820000Y-17850000D03*
%TD*%
D19*
%TO.C,C2*%
X44420000Y-19087500D03*
X44420000Y-20637500D03*
%TD*%
D16*
%TO.C,Q3*%
X13282500Y-13962500D03*
X15557500Y-13012500D03*
X13282500Y-13012500D03*
X15557500Y-13962500D03*
X13282500Y-14912500D03*
X15557500Y-14912500D03*
%TD*%
D20*
%TO.C,C1*%
X44470000Y-17262500D03*
X46370000Y-17262500D03*
%TD*%
D10*
%TO.C,R1*%
X4820000Y-19675000D03*
X4820000Y-17850000D03*
%TD*%
%TO.C,R10*%
X14820000Y-19675000D03*
X14820000Y-17850000D03*
%TD*%
D21*
%TO.C,J2*%
X2300000Y-8000000D03*
D22*
X6110000Y-8000000D03*
X9920000Y-8000000D03*
X13730000Y-8000000D03*
X17540000Y-8000000D03*
%TD*%
D23*
%TO.C,J1*%
X43370000Y-13650000D03*
D24*
X43370000Y-7650000D03*
%TD*%
M02*
