%TF.GenerationSoftware,KiCad,Pcbnew,(6.0.0)*%
%TF.CreationDate,2022-01-02T06:53:01+08:00*%
%TF.ProjectId,NodeMCU-32S-RGBWA-LED-driver,4e6f6465-4d43-4552-9d33-32532d524742,1*%
%TF.SameCoordinates,PX68d6610PY3c42a2c*%
%TF.FileFunction,Paste,Top*%
%TF.FilePolarity,Positive*%
%FSLAX46Y46*%
G04 Gerber Fmt 4.6, Leading zero omitted, Abs format (unit mm)*
G04 Created by KiCad (PCBNEW (6.0.0)) date 2022-01-02 06:53:01*
%MOMM*%
%LPD*%
G01*
G04 APERTURE LIST*
G04 Aperture macros list*
%AMRoundRect*
0 Rectangle with rounded corners*
0 $1 Rounding radius*
0 $2 $3 $4 $5 $6 $7 $8 $9 X,Y pos of 4 corners*
0 Add a 4 corners polygon primitive as box body*
4,1,4,$2,$3,$4,$5,$6,$7,$8,$9,$2,$3,0*
0 Add four circle primitives for the rounded corners*
1,1,$1+$1,$2,$3*
1,1,$1+$1,$4,$5*
1,1,$1+$1,$6,$7*
1,1,$1+$1,$8,$9*
0 Add four rect primitives between the rounded corners*
20,1,$1+$1,$2,$3,$4,$5,0*
20,1,$1+$1,$4,$5,$6,$7,0*
20,1,$1+$1,$6,$7,$8,$9,0*
20,1,$1+$1,$8,$9,$2,$3,0*%
G04 Aperture macros list end*
%ADD10RoundRect,0.250000X0.450000X-0.262500X0.450000X0.262500X-0.450000X0.262500X-0.450000X-0.262500X0*%
%ADD11R,2.000000X3.800000*%
%ADD12R,2.000000X1.500000*%
%ADD13RoundRect,0.125000X-0.587500X-0.125000X0.587500X-0.125000X0.587500X0.125000X-0.587500X0.125000X0*%
%ADD14RoundRect,0.225000X-0.250000X0.225000X-0.250000X-0.225000X0.250000X-0.225000X0.250000X0.225000X0*%
%ADD15RoundRect,0.250000X-0.250000X-0.475000X0.250000X-0.475000X0.250000X0.475000X-0.250000X0.475000X0*%
G04 APERTURE END LIST*
D10*
%TO.C,R6*%
X12820000Y-19675000D03*
X12820000Y-17850000D03*
%TD*%
%TO.C,R11*%
X22820000Y-19675000D03*
X22820000Y-17850000D03*
%TD*%
%TO.C,R2*%
X10820000Y-19675000D03*
X10820000Y-17850000D03*
%TD*%
%TO.C,R7*%
X18820000Y-19675000D03*
X18820000Y-17850000D03*
%TD*%
D11*
%TO.C,U2*%
X36120000Y-18862500D03*
D12*
X42420000Y-18862500D03*
X42420000Y-16562500D03*
X42420000Y-21162500D03*
%TD*%
D10*
%TO.C,R5*%
X2820000Y-19675000D03*
X2820000Y-17850000D03*
%TD*%
%TO.C,R4*%
X20820000Y-19675000D03*
X20820000Y-17850000D03*
%TD*%
%TO.C,R3*%
X16820000Y-19675000D03*
X16820000Y-17850000D03*
%TD*%
D13*
%TO.C,Q1*%
X4182500Y-13012500D03*
X6457500Y-13962500D03*
X6457500Y-13012500D03*
X4182500Y-13962500D03*
X4182500Y-14912500D03*
X6457500Y-14912500D03*
%TD*%
D10*
%TO.C,R8*%
X6820000Y-19675000D03*
X6820000Y-17850000D03*
%TD*%
D13*
%TO.C,Q2*%
X8732500Y-13012500D03*
X11007500Y-13962500D03*
X11007500Y-13012500D03*
X8732500Y-13962500D03*
X8732500Y-14912500D03*
X11007500Y-14912500D03*
%TD*%
%TO.C,Q4*%
X17882500Y-13012500D03*
X20157500Y-13962500D03*
X20157500Y-13012500D03*
X17882500Y-13962500D03*
X17882500Y-14912500D03*
X20157500Y-14912500D03*
%TD*%
D10*
%TO.C,R9*%
X8820000Y-19675000D03*
X8820000Y-17850000D03*
%TD*%
D14*
%TO.C,C2*%
X44420000Y-19087500D03*
X44420000Y-20637500D03*
%TD*%
D13*
%TO.C,Q3*%
X13282500Y-13012500D03*
X15557500Y-13962500D03*
X15557500Y-13012500D03*
X13282500Y-13962500D03*
X13282500Y-14912500D03*
X15557500Y-14912500D03*
%TD*%
D15*
%TO.C,C1*%
X44470000Y-17262500D03*
X46370000Y-17262500D03*
%TD*%
D10*
%TO.C,R1*%
X4820000Y-19675000D03*
X4820000Y-17850000D03*
%TD*%
%TO.C,R10*%
X14820000Y-19675000D03*
X14820000Y-17850000D03*
%TD*%
M02*
