%TF.GenerationSoftware,KiCad,Pcbnew,(6.0.0)*%
%TF.CreationDate,2022-01-02T06:53:01+08:00*%
%TF.ProjectId,NodeMCU-32S-RGBWA-LED-driver,4e6f6465-4d43-4552-9d33-32532d524742,1*%
%TF.SameCoordinates,PX68d6610PY3c42a2c*%
%TF.FileFunction,Soldermask,Bot*%
%TF.FilePolarity,Negative*%
%FSLAX46Y46*%
G04 Gerber Fmt 4.6, Leading zero omitted, Abs format (unit mm)*
G04 Created by KiCad (PCBNEW (6.0.0)) date 2022-01-02 06:53:01*
%MOMM*%
%LPD*%
G01*
G04 APERTURE LIST*
%ADD10R,1.700000X1.700000*%
%ADD11O,1.700000X1.700000*%
%ADD12C,3.200000*%
%ADD13R,2.100000X2.100000*%
%ADD14C,2.100000*%
%ADD15O,5.000000X2.500000*%
%ADD16O,4.500000X2.250000*%
G04 APERTURE END LIST*
D10*
%TO.C,U1*%
X2910000Y-46842500D03*
D11*
X5450000Y-46842500D03*
X7990000Y-46842500D03*
X10530000Y-46842500D03*
X13070000Y-46842500D03*
X15610000Y-46842500D03*
X18150000Y-46842500D03*
X20690000Y-46842500D03*
X23230000Y-46842500D03*
X25770000Y-46842500D03*
X28310000Y-46842500D03*
X30850000Y-46842500D03*
X33390000Y-46842500D03*
X35930000Y-46842500D03*
X38470000Y-46842500D03*
X41010000Y-46842500D03*
X43550000Y-46842500D03*
X46090000Y-46842500D03*
X48630000Y-46842500D03*
X48630000Y-23982500D03*
X46090000Y-23982500D03*
X43550000Y-23982500D03*
X41010000Y-23982500D03*
X38470000Y-23982500D03*
X35930000Y-23982500D03*
X33390000Y-23982500D03*
X30850000Y-23982500D03*
X28310000Y-23982500D03*
X25770000Y-23982500D03*
X23230000Y-23982500D03*
X20690000Y-23982500D03*
X18150000Y-23982500D03*
X15610000Y-23982500D03*
X13070000Y-23982500D03*
X10530000Y-23982500D03*
X7990000Y-23982500D03*
X5450000Y-23982500D03*
X2910000Y-23982500D03*
%TD*%
D12*
%TO.C,REF\u002A\u002A*%
X31270000Y-18712500D03*
%TD*%
D13*
%TO.C,J2*%
X2300000Y-8000000D03*
D14*
X6110000Y-8000000D03*
X9920000Y-8000000D03*
X13730000Y-8000000D03*
X17540000Y-8000000D03*
%TD*%
D15*
%TO.C,J1*%
X43370000Y-13650000D03*
D16*
X43370000Y-7650000D03*
%TD*%
M02*
